# Wavefront OBJ file automatically generated by Tiled2Unity

# Vertices (Count = 68)
v 0 -0.64 0
v -0.64 -0.64 0
v -0.64 0 0
v 0 0 0
v -0.32 -0.64 0
v -0.96 -0.64 0
v -0.96 0 0
v -0.32 0 0
v -1.28 -0.64 0
v -1.28 0 0
v -1.6 -0.64 0
v -1.6 0 0
v -2.24 -0.64 0
v -2.24 0 0
v -1.92 -0.64 0
v -2.56 -0.64 0
v -2.56 0 0
v -1.92 0 0
v 0 -1.28 0
v -0.64 -1.28 0
v -0.32 -1.28 0
v -0.96 -1.28 0
v -1.28 -1.28 0
v -1.6 -1.28 0
v -2.24 -1.28 0
v -1.92 -1.28 0
v -2.56 -1.28 0
v 0 -1.92 0
v -0.64 -1.92 0
v -0.32 -1.92 0
v -0.96 -1.92 0
v -1.28 -1.92 0
v -1.6 -1.92 0
v -2.24 -1.92 0
v -1.92 -1.92 0
v -2.56 -1.92 0
v 0 -2.56 0
v -0.64 -2.56 0
v -0.32 -2.56 0
v -0.96 -2.56 0
v -1.28 -2.56 0
v -1.6 -2.56 0
v -2.24 -2.56 0
v -1.92 -2.56 0
v -2.56 -2.56 0
v 0 -0.32 0
v -0.32 -0.32 0
v -0.64 -0.32 0
v -0.96 -0.32 0
v -1.28 -0.32 0
v -1.6 -0.32 0
v -1.92 -0.32 0
v -2.24 -0.32 0
v -2.56 -0.32 0
v 0 -0.96 0
v -0.32 -0.96 0
v -2.24 -0.96 0
v -2.56 -0.96 0
v 0 -1.6 0
v -0.32 -1.6 0
v -2.24 -1.6 0
v -2.56 -1.6 0
v 0 -2.24 0
v -0.32 -2.24 0
v -2.24 -2.24 0
v -2.56 -2.24 0
v -0.64 -2.24 0
v -1.92 -2.24 0

# Texture cooridinates (Count = 131)
vt 0.0001220703 0.6522959
vt 0.2326052 0.6522959
vt 0.2326052 0.9998779
vt 0.0001220703 0.9998779
vt 0.2328493 0.6522959
vt 0.4653325 0.6522959
vt 0.4653325 0.9998779
vt 0.2328493 0.9998779
vt 0.4655766 0.6522959
vt 0.6980597 0.6522959
vt 0.6980597 0.9998779
vt 0.4655766 0.9998779
vt 0.6983039 0.6522959
vt 0.930787 0.6522959
vt 0.930787 0.9998779
vt 0.6983039 0.9998779
vt 0.0001220703 0.3044699
vt 0.2326052 0.3044699
vt 0.2326052 0.6520518
vt 0.0001220703 0.6520518
vt 0.2328493 0.3044699
vt 0.4653325 0.3044699
vt 0.4653325 0.6520518
vt 0.2328493 0.6520518
vt 0.4655766 0.3044699
vt 0.6980597 0.3044699
vt 0.6980597 0.6520518
vt 0.4655766 0.6520518
vt 0.6983039 0.3044699
vt 0.930787 0.3044699
vt 0.930787 0.6520518
vt 0.6983039 0.6520518
vt 0.0001220703 0.9908628
vt 0.006050769 0.9908628
vt 0.006050769 0.9998779
vt 0.00629491 0.9908628
vt 0.01222361 0.9908628
vt 0.01222361 0.9998779
vt 0.00629491 0.9998779
vt 0.01246775 0.9908628
vt 0.01839645 0.9908628
vt 0.01839645 0.9998779
vt 0.01246775 0.9998779
vt 0.01864059 0.9908628
vt 0.02456929 0.9908628
vt 0.02456929 0.9998779
vt 0.01864059 0.9998779
vt 0.02481343 0.9908628
vt 0.03074213 0.9908628
vt 0.03074213 0.9998779
vt 0.02481343 0.9998779
vt 0.03098627 0.9908628
vt 0.03691497 0.9908628
vt 0.03691497 0.9998779
vt 0.03098627 0.9998779
vt 0.03715911 0.9908628
vt 0.04308781 0.9908628
vt 0.04308781 0.9998779
vt 0.03715911 0.9998779
vt 0.04333195 0.9908628
vt 0.04926065 0.9908628
vt 0.04926065 0.9998779
vt 0.04333195 0.9998779
vt 0.0001220703 0.9816036
vt 0.006050769 0.9816036
vt 0.006050769 0.9906186
vt 0.0001220703 0.9906186
vt 0.04333195 0.9816036
vt 0.04926065 0.9816036
vt 0.04926065 0.9906186
vt 0.04333195 0.9906186
vt 0.0001220703 0.9723443
vt 0.006050769 0.9723443
vt 0.006050769 0.9813594
vt 0.0001220703 0.9813594
vt 0.04333195 0.9723443
vt 0.04926065 0.9723443
vt 0.04926065 0.9813594
vt 0.04333195 0.9813594
vt 0.0001220703 0.9630851
vt 0.006050769 0.9630851
vt 0.006050769 0.9721001
vt 0.0001220703 0.9721001
vt 0.04333195 0.9630851
vt 0.04926065 0.9630851
vt 0.04926065 0.9721001
vt 0.04333195 0.9721001
vt 0.0001220703 0.9538258
vt 0.006050769 0.9538258
vt 0.006050769 0.9628409
vt 0.0001220703 0.9628409
vt 0.04333195 0.9538258
vt 0.04926065 0.9538258
vt 0.04926065 0.9628409
vt 0.04333195 0.9628409
vt 0.0001220703 0.9445665
vt 0.006050769 0.9445665
vt 0.006050769 0.9535816
vt 0.0001220703 0.9535816
vt 0.04333195 0.9445665
vt 0.04926065 0.9445665
vt 0.04926065 0.9535816
vt 0.04333195 0.9535816
vt 0.0001220703 0.9353073
vt 0.006050769 0.9353073
vt 0.006050769 0.9443223
vt 0.0001220703 0.9443223
vt 0.04333195 0.9353073
vt 0.04926065 0.9353073
vt 0.04926065 0.9443223
vt 0.04333195 0.9443223
vt 0.0001220703 0.926048
vt 0.006050769 0.926048
vt 0.006050769 0.9350631
vt 0.0001220703 0.9350631
vt 0.00629491 0.926048
vt 0.01222361 0.926048
vt 0.01222361 0.9350631
vt 0.00629491 0.9350631
vt 0.03715911 0.926048
vt 0.04308781 0.926048
vt 0.04308781 0.9350631
vt 0.03715911 0.9350631
vt 0.04333195 0.926048
vt 0.04926065 0.926048
vt 0.04926065 0.9350631
vt 0.04333195 0.9350631
vt 0.1544431 0.889011
vt 0.1603718 0.889011
vt 0.1603718 0.8980261
vt 0.1544431 0.8980261

# Normal
vn 0 0 -1

# Groups (Count = 5)

g mesh_0001
f 1/1/1 2/2/1 3/3/1 4/4/1
f 5/5/1 6/6/1 7/7/1 8/8/1
f 2/9/1 9/10/1 10/11/1 3/12/1
f 6/13/1 11/14/1 12/15/1 7/16/1
f 11/9/1 13/10/1 14/11/1 12/12/1
f 15/13/1 16/14/1 17/15/1 18/16/1
f 19/17/1 20/18/1 2/19/1 1/20/1
f 21/21/1 22/22/1 6/23/1 5/24/1
f 20/25/1 23/26/1 9/27/1 2/28/1
f 22/29/1 24/30/1 11/31/1 6/32/1
f 24/25/1 25/26/1 13/27/1 11/28/1
f 26/29/1 27/30/1 16/31/1 15/32/1
f 28/1/1 29/2/1 20/3/1 19/4/1
f 30/5/1 31/6/1 22/7/1 21/8/1
f 29/9/1 32/10/1 23/11/1 20/12/1
f 31/13/1 33/14/1 24/15/1 22/16/1
f 33/9/1 34/10/1 25/11/1 24/12/1
f 35/13/1 36/14/1 27/15/1 26/16/1
f 37/17/1 38/18/1 29/19/1 28/20/1
f 39/21/1 40/22/1 31/23/1 30/24/1
f 38/25/1 41/26/1 32/27/1 29/28/1
f 40/29/1 42/30/1 33/31/1 31/32/1
f 42/25/1 43/26/1 34/27/1 33/28/1
f 44/29/1 45/30/1 36/31/1 35/32/1

g mesh_0002
f 46/33/1 47/34/1 8/35/1 4/4/1
f 47/36/1 48/37/1 3/38/1 8/39/1
f 48/40/1 49/41/1 7/42/1 3/43/1
f 49/44/1 50/45/1 10/46/1 7/47/1
f 50/48/1 51/49/1 12/50/1 10/51/1
f 51/52/1 52/53/1 18/54/1 12/55/1
f 52/56/1 53/57/1 14/58/1 18/59/1
f 53/60/1 54/61/1 17/62/1 14/63/1
f 1/64/1 5/65/1 47/66/1 46/67/1
f 13/68/1 16/69/1 54/70/1 53/71/1
f 55/72/1 56/73/1 5/74/1 1/75/1
f 57/76/1 58/77/1 16/78/1 13/79/1
f 19/80/1 21/81/1 56/82/1 55/83/1
f 25/84/1 27/85/1 58/86/1 57/87/1
f 59/88/1 60/89/1 21/90/1 19/91/1
f 61/92/1 62/93/1 27/94/1 25/95/1
f 28/96/1 30/97/1 60/98/1 59/99/1
f 34/100/1 36/101/1 62/102/1 61/103/1
f 63/104/1 64/105/1 30/106/1 28/107/1
f 65/108/1 66/109/1 36/110/1 34/111/1
f 37/112/1 39/113/1 64/114/1 63/115/1
f 39/116/1 38/117/1 67/118/1 64/119/1
f 44/120/1 43/121/1 65/122/1 68/123/1
f 43/124/1 45/125/1 66/126/1 65/127/1

g mesh_0003
f 46/128/1 47/129/1 8/130/1 4/131/1
f 47/128/1 48/129/1 3/130/1 8/131/1
f 48/128/1 49/129/1 7/130/1 3/131/1
f 49/128/1 50/129/1 10/130/1 7/131/1
f 50/128/1 51/129/1 12/130/1 10/131/1
f 51/128/1 52/129/1 18/130/1 12/131/1
f 52/128/1 53/129/1 14/130/1 18/131/1
f 53/128/1 54/129/1 17/130/1 14/131/1
f 1/128/1 5/129/1 47/130/1 46/131/1
f 13/128/1 16/129/1 54/130/1 53/131/1
f 55/128/1 56/129/1 5/130/1 1/131/1
f 57/128/1 58/129/1 16/130/1 13/131/1
f 19/128/1 21/129/1 56/130/1 55/131/1
f 25/128/1 27/129/1 58/130/1 57/131/1
f 59/128/1 60/129/1 21/130/1 19/131/1
f 61/128/1 62/129/1 27/130/1 25/131/1
f 28/128/1 30/129/1 60/130/1 59/131/1
f 34/128/1 36/129/1 62/130/1 61/131/1
f 63/128/1 64/129/1 30/130/1 28/131/1
f 65/128/1 66/129/1 36/130/1 34/131/1
f 37/128/1 39/129/1 64/130/1 63/131/1
f 39/128/1 38/129/1 67/130/1 64/131/1
f 44/128/1 43/129/1 65/130/1 68/131/1
f 43/128/1 45/129/1 66/130/1 65/131/1

