# Wavefront OBJ file automatically generated by Tiled2Unity

# Vertices (Count = 99)
v 0 -3.84 0
v -2.56 -3.84 0
v -2.56 -1.28 0
v 0 -1.28 0
v -5.12 -3.84 0
v -5.12 -1.28 0
v 0 -2.56 0
v -2.56 -2.56 0
v -2.56 0 0
v 0 0 0
v -5.12 -2.56 0
v -5.12 0 0
v 0 -0.32 0
v -0.32 -0.32 0
v -0.32 0 0
v -0.64 -0.32 0
v -0.64 0 0
v -0.96 -0.32 0
v -0.96 0 0
v -1.28 -0.32 0
v -1.28 0 0
v -1.6 -0.32 0
v -1.6 0 0
v -1.92 -0.32 0
v -1.92 0 0
v -2.24 -0.32 0
v -2.24 0 0
v -2.56 -0.32 0
v -2.88 -0.32 0
v -2.88 0 0
v -3.2 -0.32 0
v -3.2 0 0
v -3.52 -0.32 0
v -3.52 0 0
v -3.84 -0.32 0
v -3.84 0 0
v -4.16 -0.32 0
v -4.16 0 0
v -4.48 -0.32 0
v -4.48 0 0
v -4.8 -0.32 0
v -4.8 0 0
v -5.12 -0.32 0
v 0 -0.64 0
v -0.32 -0.64 0
v -4.8 -0.64 0
v -5.12 -0.64 0
v 0 -0.96 0
v -0.32 -0.96 0
v -4.8 -0.96 0
v -5.12 -0.96 0
v -0.32 -1.28 0
v -4.8 -1.28 0
v 0 -1.6 0
v -0.32 -1.6 0
v -4.8 -1.6 0
v -5.12 -1.6 0
v 0 -1.92 0
v -0.32 -1.92 0
v -4.8 -1.92 0
v -5.12 -1.92 0
v 0 -2.24 0
v -0.32 -2.24 0
v -4.8 -2.24 0
v -5.12 -2.24 0
v -0.32 -2.56 0
v -4.8 -2.56 0
v 0 -2.88 0
v -0.32 -2.88 0
v -4.8 -2.88 0
v -5.12 -2.88 0
v 0 -3.2 0
v -0.32 -3.2 0
v -4.8 -3.2 0
v -5.12 -3.2 0
v 0 -3.52 0
v -0.32 -3.52 0
v -4.8 -3.52 0
v -5.12 -3.52 0
v -0.32 -3.84 0
v -0.64 -3.84 0
v -0.64 -3.52 0
v -0.96 -3.84 0
v -0.96 -3.52 0
v -1.28 -3.84 0
v -1.28 -3.52 0
v -1.6 -3.84 0
v -1.6 -3.52 0
v -1.92 -3.84 0
v -1.92 -3.52 0
v -2.24 -3.84 0
v -2.24 -3.52 0
v -3.84 -3.84 0
v -4.16 -3.84 0
v -4.16 -3.52 0
v -3.84 -3.52 0
v -4.48 -3.84 0
v -4.48 -3.52 0
v -4.8 -3.84 0

# Texture cooridinates (Count = 99)
vt 0.0001220703 0.5734554
vt 0.1598779 0.5734554
vt 0.1598779 0.7865446
vt 0.0001220703 0.7865446
vt 0.1601221 0.5734554
vt 0.3198779 0.5734554
vt 0.3198779 0.7865446
vt 0.1601221 0.7865446
vt 0.0001220703 0.7867887
vt 0.1598779 0.7867887
vt 0.1598779 0.9998779
vt 0.0001220703 0.9998779
vt 0.1601221 0.7867887
vt 0.3198779 0.7867887
vt 0.3198779 0.9998779
vt 0.1601221 0.9998779
vt 0.0001220703 0.8252587
vt 0.1162416 0.8252587
vt 0.1162416 0.9998779
vt 0.1164857 0.8252587
vt 0.2326052 0.8252587
vt 0.2326052 0.9998779
vt 0.1164857 0.9998779
vt 0.2328493 0.8252587
vt 0.3489688 0.8252587
vt 0.3489688 0.9998779
vt 0.2328493 0.9998779
vt 0.349213 0.8252587
vt 0.4653325 0.8252587
vt 0.4653325 0.9998779
vt 0.349213 0.9998779
vt 0.4655766 0.8252587
vt 0.5816961 0.8252587
vt 0.5816961 0.9998779
vt 0.4655766 0.9998779
vt 0.5819402 0.8252587
vt 0.6980597 0.8252587
vt 0.6980597 0.9998779
vt 0.5819402 0.9998779
vt 0.6983039 0.8252587
vt 0.8144234 0.8252587
vt 0.8144234 0.9998779
vt 0.6983039 0.9998779
vt 0.8146675 0.8252587
vt 0.930787 0.8252587
vt 0.930787 0.9998779
vt 0.8146675 0.9998779
vt 0.0001220703 0.6503953
vt 0.1162416 0.6503953
vt 0.1162416 0.8250145
vt 0.0001220703 0.8250145
vt 0.8146675 0.6503953
vt 0.930787 0.6503953
vt 0.930787 0.8250145
vt 0.8146675 0.8250145
vt 0.0001220703 0.4755319
vt 0.1162416 0.4755319
vt 0.1162416 0.6501511
vt 0.0001220703 0.6501511
vt 0.8146675 0.4755319
vt 0.930787 0.4755319
vt 0.930787 0.6501511
vt 0.8146675 0.6501511
vt 0.0001220703 0.3006685
vt 0.1162416 0.3006685
vt 0.1162416 0.4752878
vt 0.0001220703 0.4752878
vt 0.8146675 0.3006685
vt 0.930787 0.3006685
vt 0.930787 0.4752878
vt 0.8146675 0.4752878
vt 0.0001220703 0.1258051
vt 0.1162416 0.1258051
vt 0.1162416 0.3004244
vt 0.0001220703 0.3004244
vt 0.8146675 0.1258051
vt 0.930787 0.1258051
vt 0.930787 0.3004244
vt 0.8146675 0.3004244
vt 0.349213 0.1258051
vt 0.4653325 0.1258051
vt 0.4653325 0.3004244
vt 0.349213 0.3004244
vt 0.4655766 0.1258051
vt 0.5816961 0.1258051
vt 0.5816961 0.3004244
vt 0.4655766 0.3004244
vt 0.5819402 0.1258051
vt 0.6980597 0.1258051
vt 0.6980597 0.3004244
vt 0.5819402 0.3004244
vt 0.6983039 0.1258051
vt 0.8144234 0.1258051
vt 0.8144234 0.3004244
vt 0.6983039 0.3004244
vt 0.4655766 0.4755319
vt 0.5816961 0.4755319
vt 0.5816961 0.6501511
vt 0.4655766 0.6501511

# Normal
vn 0 0 -1

# Groups (Count = 6)

g mesh_0001
f 1/1/1 2/2/1 3/3/1 4/4/1
f 2/5/1 5/6/1 6/7/1 3/8/1

g mesh_0002
f 7/9/1 8/10/1 9/11/1 10/12/1
f 8/13/1 11/14/1 12/15/1 9/16/1

g mesh_0003
f 13/17/1 14/18/1 15/19/1 10/12/1
f 14/20/1 16/21/1 17/22/1 15/23/1
f 16/24/1 18/25/1 19/26/1 17/27/1
f 18/28/1 20/29/1 21/30/1 19/31/1
f 20/32/1 22/33/1 23/34/1 21/35/1
f 22/36/1 24/37/1 25/38/1 23/39/1
f 24/40/1 26/41/1 27/42/1 25/43/1
f 26/44/1 28/45/1 9/46/1 27/47/1
f 28/17/1 29/18/1 30/19/1 9/12/1
f 29/20/1 31/21/1 32/22/1 30/23/1
f 31/24/1 33/25/1 34/26/1 32/27/1
f 33/28/1 35/29/1 36/30/1 34/31/1
f 35/32/1 37/33/1 38/34/1 36/35/1
f 37/36/1 39/37/1 40/38/1 38/39/1
f 39/40/1 41/41/1 42/42/1 40/43/1
f 41/44/1 43/45/1 12/46/1 42/47/1
f 44/17/1 45/18/1 14/19/1 13/12/1
f 46/44/1 47/45/1 43/46/1 41/47/1
f 48/48/1 49/49/1 45/50/1 44/51/1
f 50/52/1 51/53/1 47/54/1 46/55/1
f 4/56/1 52/57/1 49/58/1 48/59/1
f 53/60/1 6/61/1 51/62/1 50/63/1
f 54/64/1 55/65/1 52/66/1 4/67/1
f 56/68/1 57/69/1 6/70/1 53/71/1
f 58/72/1 59/73/1 55/74/1 54/75/1
f 60/76/1 61/77/1 57/78/1 56/79/1
f 62/17/1 63/18/1 59/19/1 58/12/1
f 64/44/1 65/45/1 61/46/1 60/47/1
f 7/48/1 66/49/1 63/50/1 62/51/1
f 67/52/1 11/53/1 65/54/1 64/55/1
f 68/56/1 69/57/1 66/58/1 7/59/1
f 70/60/1 71/61/1 11/62/1 67/63/1
f 72/64/1 73/65/1 69/66/1 68/67/1
f 74/68/1 75/69/1 71/70/1 70/71/1
f 76/72/1 77/73/1 73/74/1 72/75/1
f 78/76/1 79/77/1 75/78/1 74/79/1
f 1/17/1 80/18/1 77/19/1 76/12/1
f 80/20/1 81/21/1 82/22/1 77/23/1
f 81/24/1 83/25/1 84/26/1 82/27/1
f 83/28/1 85/29/1 86/30/1 84/31/1
f 85/32/1 87/33/1 88/34/1 86/35/1
f 87/36/1 89/37/1 90/38/1 88/39/1
f 89/40/1 91/41/1 92/42/1 90/43/1
f 93/80/1 94/81/1 95/82/1 96/83/1
f 94/84/1 97/85/1 98/86/1 95/87/1
f 97/88/1 99/89/1 78/90/1 98/91/1
f 99/92/1 5/93/1 79/94/1 78/95/1

g mesh_0004
f 13/96/1 14/97/1 15/98/1 10/99/1
f 14/96/1 16/97/1 17/98/1 15/99/1
f 16/96/1 18/97/1 19/98/1 17/99/1
f 18/96/1 20/97/1 21/98/1 19/99/1
f 20/96/1 22/97/1 23/98/1 21/99/1
f 22/96/1 24/97/1 25/98/1 23/99/1
f 24/96/1 26/97/1 27/98/1 25/99/1
f 26/96/1 28/97/1 9/98/1 27/99/1
f 28/96/1 29/97/1 30/98/1 9/99/1
f 29/96/1 31/97/1 32/98/1 30/99/1
f 31/96/1 33/97/1 34/98/1 32/99/1
f 33/96/1 35/97/1 36/98/1 34/99/1
f 35/96/1 37/97/1 38/98/1 36/99/1
f 37/96/1 39/97/1 40/98/1 38/99/1
f 39/96/1 41/97/1 42/98/1 40/99/1
f 41/96/1 43/97/1 12/98/1 42/99/1
f 44/96/1 45/97/1 14/98/1 13/99/1
f 46/96/1 47/97/1 43/98/1 41/99/1
f 48/96/1 49/97/1 45/98/1 44/99/1
f 50/96/1 51/97/1 47/98/1 46/99/1
f 4/96/1 52/97/1 49/98/1 48/99/1
f 53/96/1 6/97/1 51/98/1 50/99/1
f 54/96/1 55/97/1 52/98/1 4/99/1
f 56/96/1 57/97/1 6/98/1 53/99/1
f 58/96/1 59/97/1 55/98/1 54/99/1
f 60/96/1 61/97/1 57/98/1 56/99/1
f 62/96/1 63/97/1 59/98/1 58/99/1
f 64/96/1 65/97/1 61/98/1 60/99/1
f 7/96/1 66/97/1 63/98/1 62/99/1
f 67/96/1 11/97/1 65/98/1 64/99/1
f 68/96/1 69/97/1 66/98/1 7/99/1
f 70/96/1 71/97/1 11/98/1 67/99/1
f 72/96/1 73/97/1 69/98/1 68/99/1
f 74/96/1 75/97/1 71/98/1 70/99/1
f 76/96/1 77/97/1 73/98/1 72/99/1
f 78/96/1 79/97/1 75/98/1 74/99/1
f 1/96/1 80/97/1 77/98/1 76/99/1
f 80/96/1 81/97/1 82/98/1 77/99/1
f 81/96/1 83/97/1 84/98/1 82/99/1
f 83/96/1 85/97/1 86/98/1 84/99/1
f 85/96/1 87/97/1 88/98/1 86/99/1
f 87/96/1 89/97/1 90/98/1 88/99/1
f 89/96/1 91/97/1 92/98/1 90/99/1
f 93/96/1 94/97/1 95/98/1 96/99/1
f 94/96/1 97/97/1 98/98/1 95/99/1
f 97/96/1 99/97/1 78/98/1 98/99/1
f 99/96/1 5/97/1 79/98/1 78/99/1

