# Wavefront OBJ file automatically generated by Tiled2Unity

# Vertices (Count = 138)
v 0 -2.56 0
v -2.56 -2.56 0
v -2.56 0 0
v 0 0 0
v -5.12 -2.56 0
v -5.12 0 0
v 0 -5.12 0
v -2.56 -5.12 0
v -5.12 -5.12 0
v 0 -0.96 0
v -5.12 -0.96 0
v -5.12 -0.32 0
v 0 -0.32 0
v -0.32 -0.32 0
v -0.32 0 0
v -0.64 -0.32 0
v -0.64 0 0
v -0.96 -0.32 0
v -0.96 0 0
v -1.28 -0.32 0
v -1.28 0 0
v -1.6 -0.32 0
v -1.6 0 0
v -1.92 -0.32 0
v -1.92 0 0
v -2.24 -0.32 0
v -2.24 0 0
v -2.56 -0.32 0
v -2.88 -0.32 0
v -2.88 0 0
v -3.2 -0.32 0
v -3.2 0 0
v -3.52 -0.32 0
v -3.52 0 0
v -3.84 -0.32 0
v -3.84 0 0
v -4.16 -0.32 0
v -4.16 0 0
v -4.48 -0.32 0
v -4.48 0 0
v -4.8 -0.32 0
v -4.8 0 0
v 0 -0.64 0
v -0.32 -0.64 0
v -4.8 -0.64 0
v -5.12 -0.64 0
v -0.32 -0.96 0
v -4.8 -0.96 0
v 0 -1.28 0
v -0.32 -1.28 0
v -4.8 -1.28 0
v -5.12 -1.28 0
v 0 -1.6 0
v -0.32 -1.6 0
v -4.8 -1.6 0
v -5.12 -1.6 0
v 0 -1.92 0
v -0.32 -1.92 0
v -4.8 -1.92 0
v -5.12 -1.92 0
v 0 -2.24 0
v -0.32 -2.24 0
v -4.8 -2.24 0
v -5.12 -2.24 0
v -0.32 -2.56 0
v -4.8 -2.56 0
v 0 -2.88 0
v -0.32 -2.88 0
v -4.8 -2.88 0
v -5.12 -2.88 0
v 0 -3.2 0
v -0.32 -3.2 0
v -4.8 -3.2 0
v -5.12 -3.2 0
v 0 -3.52 0
v -0.32 -3.52 0
v -4.8 -3.52 0
v -5.12 -3.52 0
v 0 -3.84 0
v -0.32 -3.84 0
v -4.8 -3.84 0
v -5.12 -3.84 0
v 0 -4.16 0
v -0.32 -4.16 0
v -4.8 -4.16 0
v -5.12 -4.16 0
v 0 -4.48 0
v -0.32 -4.48 0
v -4.8 -4.48 0
v -5.12 -4.48 0
v 0 -4.8 0
v -0.32 -4.8 0
v -4.8 -4.8 0
v -5.12 -4.8 0
v -0.32 -5.12 0
v -0.64 -5.12 0
v -0.64 -4.8 0
v -0.96 -5.12 0
v -0.96 -4.8 0
v -1.28 -5.12 0
v -1.28 -4.8 0
v -1.6 -5.12 0
v -1.6 -4.8 0
v -3.52 -5.12 0
v -3.84 -5.12 0
v -3.84 -4.8 0
v -3.52 -4.8 0
v -4.16 -5.12 0
v -4.16 -4.8 0
v -4.48 -5.12 0
v -4.48 -4.8 0
v -4.8 -5.12 0
v -0.64 -1.28 0
v -0.64 -0.96 0
v -0.96 -1.28 0
v -0.96 -0.96 0
v -1.28 -1.28 0
v -1.28 -0.96 0
v -1.6 -1.28 0
v -1.6 -0.96 0
v -1.92 -1.28 0
v -1.92 -0.96 0
v -2.24 -1.28 0
v -2.24 -0.96 0
v -2.56 -1.28 0
v -2.56 -0.96 0
v -2.88 -1.28 0
v -2.88 -0.96 0
v -3.2 -1.28 0
v -3.2 -0.96 0
v -3.52 -1.28 0
v -3.52 -0.96 0
v -3.84 -1.28 0
v -3.84 -0.96 0
v -4.16 -1.28 0
v -4.16 -0.96 0
v -4.48 -1.28 0
v -4.48 -0.96 0

# Texture cooridinates (Count = 150)
vt 0.0001220703 0.2890109
vt 0.5332113 0.2890109
vt 0.5332113 0.9998779
vt 0.0001220703 0.9998779
vt 0.0001220703 0.0001220703
vt 0.9998779 0.0001220703
vt 0.9998779 0.9998779
vt 0.0001220703 0.9092129
vt 0.1354712 0.9092129
vt 0.1354712 0.9998779
vt 0.1357153 0.9092129
vt 0.2710644 0.9092129
vt 0.2710644 0.9998779
vt 0.1357153 0.9998779
vt 0.2713085 0.9092129
vt 0.4066576 0.9092129
vt 0.4066576 0.9998779
vt 0.2713085 0.9998779
vt 0.4069017 0.9092129
vt 0.5422508 0.9092129
vt 0.5422508 0.9998779
vt 0.4069017 0.9998779
vt 0.542495 0.9092129
vt 0.677844 0.9092129
vt 0.677844 0.9998779
vt 0.542495 0.9998779
vt 0.6780882 0.9092129
vt 0.8134372 0.9092129
vt 0.8134372 0.9998779
vt 0.6780882 0.9998779
vt 0.8136814 0.9092129
vt 0.9490305 0.9092129
vt 0.9490305 0.9998779
vt 0.8136814 0.9998779
vt 0.0001220703 0.8183039
vt 0.1354712 0.8183039
vt 0.1354712 0.9089688
vt 0.0001220703 0.9089688
vt 0.1357153 0.8183039
vt 0.2710644 0.8183039
vt 0.2710644 0.9089688
vt 0.1357153 0.9089688
vt 0.2713085 0.8183039
vt 0.4066576 0.8183039
vt 0.4066576 0.9089688
vt 0.2713085 0.9089688
vt 0.4069017 0.8183039
vt 0.5422508 0.8183039
vt 0.5422508 0.9089688
vt 0.4069017 0.9089688
vt 0.542495 0.8183039
vt 0.677844 0.8183039
vt 0.677844 0.9089688
vt 0.542495 0.9089688
vt 0.6780882 0.8183039
vt 0.8134372 0.8183039
vt 0.8134372 0.9089688
vt 0.6780882 0.9089688
vt 0.8136814 0.8183039
vt 0.9490305 0.8183039
vt 0.9490305 0.9089688
vt 0.8136814 0.9089688
vt 0.4069017 0.3637584
vt 0.5422508 0.3637584
vt 0.5422508 0.4544234
vt 0.4069017 0.4544234
vt 0.0001220703 0.7273948
vt 0.1354712 0.7273948
vt 0.1354712 0.8180597
vt 0.0001220703 0.8180597
vt 0.0001220703 0.6364857
vt 0.1354712 0.6364857
vt 0.1354712 0.7271507
vt 0.0001220703 0.7271507
vt 0.8136814 0.7273948
vt 0.9490305 0.7273948
vt 0.9490305 0.8180597
vt 0.8136814 0.8180597
vt 0.0001220703 0.5455766
vt 0.1354712 0.5455766
vt 0.1354712 0.6362416
vt 0.0001220703 0.6362416
vt 0.8136814 0.6364857
vt 0.9490305 0.6364857
vt 0.9490305 0.7271507
vt 0.8136814 0.7271507
vt 0.0001220703 0.4546675
vt 0.1354712 0.4546675
vt 0.1354712 0.5453324
vt 0.0001220703 0.5453324
vt 0.8136814 0.5455766
vt 0.9490305 0.5455766
vt 0.9490305 0.6362416
vt 0.8136814 0.6362416
vt 0.0001220703 0.3637584
vt 0.1354712 0.3637584
vt 0.1354712 0.4544234
vt 0.0001220703 0.4544234
vt 0.8136814 0.4546675
vt 0.9490305 0.4546675
vt 0.9490305 0.5453324
vt 0.8136814 0.5453324
vt 0.0001220703 0.2728493
vt 0.1354712 0.2728493
vt 0.1354712 0.3635143
vt 0.0001220703 0.3635143
vt 0.8136814 0.3637584
vt 0.9490305 0.3637584
vt 0.9490305 0.4544234
vt 0.8136814 0.4544234
vt 0.0001220703 0.1819403
vt 0.1354712 0.1819403
vt 0.1354712 0.2726052
vt 0.0001220703 0.2726052
vt 0.8136814 0.2728493
vt 0.9490305 0.2728493
vt 0.9490305 0.3635143
vt 0.8136814 0.3635143
vt 0.0001220703 0.09103113
vt 0.1354712 0.09103113
vt 0.1354712 0.1816961
vt 0.0001220703 0.1816961
vt 0.8136814 0.1819403
vt 0.9490305 0.1819403
vt 0.9490305 0.2726052
vt 0.8136814 0.2726052
vt 0.1357153 0.1819403
vt 0.2710644 0.1819403
vt 0.2710644 0.2726052
vt 0.1357153 0.2726052
vt 0.2713085 0.1819403
vt 0.4066576 0.1819403
vt 0.4066576 0.2726052
vt 0.2713085 0.2726052
vt 0.4069017 0.1819403
vt 0.5422508 0.1819403
vt 0.5422508 0.2726052
vt 0.4069017 0.2726052
vt 0.542495 0.1819403
vt 0.677844 0.1819403
vt 0.677844 0.2726052
vt 0.542495 0.2726052
vt 0.6780882 0.1819403
vt 0.8134372 0.1819403
vt 0.8134372 0.2726052
vt 0.6780882 0.2726052
vt 0.8136814 0.0001220703
vt 0.9490305 0.0001220703
vt 0.9490305 0.09078699
vt 0.8136814 0.09078699

# Normal
vn 0 0 -1

# Groups (Count = 6)

g mesh_0001
f 1/1/1 2/2/1 3/3/1 4/4/1
f 2/1/1 5/2/1 6/3/1 3/4/1
f 7/1/1 8/2/1 2/3/1 1/4/1
f 8/1/1 9/2/1 5/3/1 2/4/1

g mesh_0002
f 10/5/1 11/6/1 12/7/1 13/4/1

g mesh_0003
f 13/8/1 14/9/1 15/10/1 4/4/1
f 14/11/1 16/12/1 17/13/1 15/14/1
f 16/15/1 18/16/1 19/17/1 17/18/1
f 18/19/1 20/20/1 21/21/1 19/22/1
f 20/23/1 22/24/1 23/25/1 21/26/1
f 22/27/1 24/28/1 25/29/1 23/30/1
f 24/31/1 26/32/1 27/33/1 25/34/1
f 26/35/1 28/36/1 3/37/1 27/38/1
f 28/39/1 29/40/1 30/41/1 3/42/1
f 29/43/1 31/44/1 32/45/1 30/46/1
f 31/47/1 33/48/1 34/49/1 32/50/1
f 33/51/1 35/52/1 36/53/1 34/54/1
f 35/55/1 37/56/1 38/57/1 36/58/1
f 37/59/1 39/60/1 40/61/1 38/62/1
f 39/63/1 41/64/1 42/65/1 40/66/1
f 41/8/1 12/9/1 6/10/1 42/4/1
f 43/35/1 44/36/1 14/37/1 13/38/1
f 45/31/1 46/32/1 12/33/1 41/34/1
f 10/67/1 47/68/1 44/69/1 43/70/1
f 48/59/1 11/60/1 46/61/1 45/62/1
f 49/71/1 50/72/1 47/73/1 10/74/1
f 51/75/1 52/76/1 11/77/1 48/78/1
f 53/79/1 54/80/1 50/81/1 49/82/1
f 55/83/1 56/84/1 52/85/1 51/86/1
f 57/87/1 58/88/1 54/89/1 53/90/1
f 59/91/1 60/92/1 56/93/1 55/94/1
f 61/95/1 62/96/1 58/97/1 57/98/1
f 63/99/1 64/100/1 60/101/1 59/102/1
f 1/103/1 65/104/1 62/105/1 61/106/1
f 66/107/1 5/108/1 64/109/1 63/110/1
f 67/111/1 68/112/1 65/113/1 1/114/1
f 69/115/1 70/116/1 5/117/1 66/118/1
f 71/119/1 72/120/1 68/121/1 67/122/1
f 73/123/1 74/124/1 70/125/1 69/126/1
f 75/8/1 76/9/1 72/10/1 71/4/1
f 77/31/1 78/32/1 74/33/1 73/34/1
f 79/35/1 80/36/1 76/37/1 75/38/1
f 81/59/1 82/60/1 78/61/1 77/62/1
f 83/67/1 84/68/1 80/69/1 79/70/1
f 85/75/1 86/76/1 82/77/1 81/78/1
f 87/71/1 88/72/1 84/73/1 83/74/1
f 89/83/1 90/84/1 86/85/1 85/86/1
f 91/79/1 92/80/1 88/81/1 87/82/1
f 93/91/1 94/92/1 90/93/1 89/94/1
f 7/87/1 95/88/1 92/89/1 91/90/1
f 95/111/1 96/112/1 97/113/1 92/114/1
f 96/127/1 98/128/1 99/129/1 97/130/1
f 98/131/1 100/132/1 101/133/1 99/134/1
f 100/135/1 102/136/1 103/137/1 101/138/1
f 104/135/1 105/136/1 106/137/1 107/138/1
f 105/139/1 108/140/1 109/141/1 106/142/1
f 108/143/1 110/144/1 111/145/1 109/146/1
f 110/123/1 112/124/1 93/125/1 111/126/1
f 112/99/1 9/100/1 94/101/1 93/102/1

g mesh_0004
f 13/147/1 14/148/1 15/149/1 4/150/1
f 14/147/1 16/148/1 17/149/1 15/150/1
f 16/147/1 18/148/1 19/149/1 17/150/1
f 18/147/1 20/148/1 21/149/1 19/150/1
f 20/147/1 22/148/1 23/149/1 21/150/1
f 22/147/1 24/148/1 25/149/1 23/150/1
f 24/147/1 26/148/1 27/149/1 25/150/1
f 26/147/1 28/148/1 3/149/1 27/150/1
f 28/147/1 29/148/1 30/149/1 3/150/1
f 29/147/1 31/148/1 32/149/1 30/150/1
f 31/147/1 33/148/1 34/149/1 32/150/1
f 33/147/1 35/148/1 36/149/1 34/150/1
f 35/147/1 37/148/1 38/149/1 36/150/1
f 37/147/1 39/148/1 40/149/1 38/150/1
f 39/147/1 41/148/1 42/149/1 40/150/1
f 41/147/1 12/148/1 6/149/1 42/150/1
f 43/147/1 44/148/1 14/149/1 13/150/1
f 45/147/1 46/148/1 12/149/1 41/150/1
f 10/147/1 47/148/1 44/149/1 43/150/1
f 48/147/1 11/148/1 46/149/1 45/150/1
f 49/147/1 50/148/1 47/149/1 10/150/1
f 50/147/1 113/148/1 114/149/1 47/150/1
f 113/147/1 115/148/1 116/149/1 114/150/1
f 115/147/1 117/148/1 118/149/1 116/150/1
f 117/147/1 119/148/1 120/149/1 118/150/1
f 119/147/1 121/148/1 122/149/1 120/150/1
f 121/147/1 123/148/1 124/149/1 122/150/1
f 123/147/1 125/148/1 126/149/1 124/150/1
f 125/147/1 127/148/1 128/149/1 126/150/1
f 127/147/1 129/148/1 130/149/1 128/150/1
f 129/147/1 131/148/1 132/149/1 130/150/1
f 131/147/1 133/148/1 134/149/1 132/150/1
f 133/147/1 135/148/1 136/149/1 134/150/1
f 135/147/1 137/148/1 138/149/1 136/150/1
f 137/147/1 51/148/1 48/149/1 138/150/1
f 51/147/1 52/148/1 11/149/1 48/150/1
f 53/147/1 54/148/1 50/149/1 49/150/1
f 55/147/1 56/148/1 52/149/1 51/150/1
f 57/147/1 58/148/1 54/149/1 53/150/1
f 59/147/1 60/148/1 56/149/1 55/150/1
f 61/147/1 62/148/1 58/149/1 57/150/1
f 63/147/1 64/148/1 60/149/1 59/150/1
f 1/147/1 65/148/1 62/149/1 61/150/1
f 66/147/1 5/148/1 64/149/1 63/150/1
f 67/147/1 68/148/1 65/149/1 1/150/1
f 69/147/1 70/148/1 5/149/1 66/150/1
f 71/147/1 72/148/1 68/149/1 67/150/1
f 73/147/1 74/148/1 70/149/1 69/150/1
f 75/147/1 76/148/1 72/149/1 71/150/1
f 77/147/1 78/148/1 74/149/1 73/150/1
f 79/147/1 80/148/1 76/149/1 75/150/1
f 81/147/1 82/148/1 78/149/1 77/150/1
f 83/147/1 84/148/1 80/149/1 79/150/1
f 85/147/1 86/148/1 82/149/1 81/150/1
f 87/147/1 88/148/1 84/149/1 83/150/1
f 89/147/1 90/148/1 86/149/1 85/150/1
f 91/147/1 92/148/1 88/149/1 87/150/1
f 93/147/1 94/148/1 90/149/1 89/150/1
f 7/147/1 95/148/1 92/149/1 91/150/1
f 95/147/1 96/148/1 97/149/1 92/150/1
f 96/147/1 98/148/1 99/149/1 97/150/1
f 98/147/1 100/148/1 101/149/1 99/150/1
f 100/147/1 102/148/1 103/149/1 101/150/1
f 104/147/1 105/148/1 106/149/1 107/150/1
f 105/147/1 108/148/1 109/149/1 106/150/1
f 108/147/1 110/148/1 111/149/1 109/150/1
f 110/147/1 112/148/1 93/149/1 111/150/1
f 112/147/1 9/148/1 94/149/1 93/150/1

