# Wavefront OBJ file automatically generated by Tiled2Unity

# Vertices (Count = 470)
v 0 -0.32 0
v -0.32 -0.32 0
v -0.32 0 0
v 0 0 0
v -0.64 -0.32 0
v -0.64 0 0
v -0.96 -0.32 0
v -0.96 0 0
v -1.28 -0.32 0
v -1.28 0 0
v -1.6 -0.32 0
v -1.6 0 0
v -1.92 -0.32 0
v -1.92 0 0
v -2.24 -0.32 0
v -2.24 0 0
v 0 -2.56 0
v -2.56 -2.56 0
v -2.56 0 0
v -10.24 -2.56 0
v -12.8 -2.56 0
v -12.8 0 0
v -10.24 0 0
v -2.56 -5.12 0
v -5.12 -5.12 0
v -5.12 -2.56 0
v -10.24 -5.12 0
v -12.8 -5.12 0
v -7.68 -7.68 0
v -10.24 -7.68 0
v -7.68 -5.12 0
v -15.36 -7.68 0
v -17.92 -7.68 0
v -17.92 -5.12 0
v -15.36 -5.12 0
v -12.8 -15.36 0
v -15.36 -15.36 0
v -15.36 -12.8 0
v -12.8 -12.8 0
v -2.56 -17.92 0
v -5.12 -17.92 0
v -5.12 -15.36 0
v -2.56 -15.36 0
v -7.68 -17.92 0
v -10.24 -17.92 0
v -10.24 -15.36 0
v -7.68 -15.36 0
v -5.12 0 0
v -15.36 -2.56 0
v -15.36 0 0
v -7.68 -2.56 0
v -17.92 -2.56 0
v -10.24 -10.24 0
v -12.8 -10.24 0
v -12.8 -7.68 0
v -15.36 -10.24 0
v -17.92 -10.24 0
v 0 -12.8 0
v -2.56 -12.8 0
v -2.56 -10.24 0
v 0 -10.24 0
v -7.68 -12.8 0
v -10.24 -12.8 0
v -7.68 -10.24 0
v -5.12 -12.8 0
v -17.92 -15.36 0
v -17.92 -12.8 0
v -7.68 0 0
v -17.92 0 0
v 0 -5.12 0
v -2.56 -7.68 0
v -5.12 -7.68 0
v 0 -7.68 0
v -5.12 -10.24 0
v 0 -17.92 0
v 0 -15.36 0
v -12.8 -17.92 0
v -15.36 -17.92 0
v -17.92 -17.92 0
v -2.56 -0.32 0
v -2.88 -0.32 0
v -2.88 0 0
v -3.2 -0.32 0
v -3.2 0 0
v -3.52 -0.32 0
v -3.52 0 0
v -3.84 -0.32 0
v -3.84 0 0
v -4.16 -0.32 0
v -4.16 0 0
v -4.48 -0.32 0
v -4.48 0 0
v -4.8 -0.32 0
v -4.8 0 0
v -5.12 -0.32 0
v -5.44 -0.32 0
v -5.44 0 0
v -5.76 -0.32 0
v -5.76 0 0
v -6.08 -0.32 0
v -6.08 0 0
v -6.4 -0.32 0
v -6.4 0 0
v -6.72 -0.32 0
v -6.72 0 0
v -7.04 -0.32 0
v -7.04 0 0
v -7.36 -0.32 0
v -7.36 0 0
v -7.68 -0.32 0
v -8 -0.32 0
v -8 0 0
v -8.32 -0.32 0
v -8.32 0 0
v -8.639999 -0.32 0
v -8.639999 0 0
v -8.96 -0.32 0
v -8.96 0 0
v -9.28 -0.32 0
v -9.28 0 0
v -9.599999 -0.32 0
v -9.599999 0 0
v -9.92 -0.32 0
v -9.92 0 0
v -10.24 -0.32 0
v -10.56 -0.32 0
v -10.56 0 0
v -10.88 -0.32 0
v -10.88 0 0
v -11.2 -0.32 0
v -11.2 0 0
v -11.52 -0.32 0
v -11.52 0 0
v -11.84 -0.32 0
v -11.84 0 0
v -12.16 -0.32 0
v -12.16 0 0
v -12.48 -0.32 0
v -12.48 0 0
v -12.8 -0.32 0
v -13.12 -0.32 0
v -13.12 0 0
v -13.44 -0.32 0
v -13.44 0 0
v -13.76 -0.32 0
v -13.76 0 0
v -14.08 -0.32 0
v -14.08 0 0
v -14.4 -0.32 0
v -14.4 0 0
v -14.72 -0.32 0
v -14.72 0 0
v -15.04 -0.32 0
v -15.04 0 0
v -15.36 -0.32 0
v -15.68 -0.32 0
v -15.68 0 0
v -16 -0.32 0
v -16 0 0
v -16.32 -0.32 0
v -16.32 0 0
v -16.64 -0.32 0
v -16.64 0 0
v -16.96 -0.32 0
v -16.96 0 0
v -17.28 -0.32 0
v -17.28 0 0
v -17.6 -0.32 0
v -17.6 0 0
v -17.92 -0.32 0
v 0 -0.64 0
v -0.32 -0.64 0
v -17.6 -0.64 0
v -17.92 -0.64 0
v 0 -0.96 0
v -0.32 -0.96 0
v -17.6 -0.96 0
v -17.92 -0.96 0
v 0 -1.28 0
v -0.32 -1.28 0
v -17.6 -1.28 0
v -17.92 -1.28 0
v 0 -1.6 0
v -0.32 -1.6 0
v -17.6 -1.6 0
v -17.92 -1.6 0
v 0 -1.92 0
v -0.32 -1.92 0
v -17.6 -1.92 0
v -17.92 -1.92 0
v 0 -2.24 0
v -0.32 -2.24 0
v -17.6 -2.24 0
v -17.92 -2.24 0
v -0.32 -2.56 0
v -17.6 -2.56 0
v 0 -2.88 0
v -0.32 -2.88 0
v -17.6 -2.88 0
v -17.92 -2.88 0
v 0 -3.2 0
v -0.32 -3.2 0
v -17.6 -3.2 0
v -17.92 -3.2 0
v 0 -3.52 0
v -0.32 -3.52 0
v -17.6 -3.52 0
v -17.92 -3.52 0
v 0 -3.84 0
v -0.32 -3.84 0
v -17.6 -3.84 0
v -17.92 -3.84 0
v 0 -4.16 0
v -0.32 -4.16 0
v -17.6 -4.16 0
v -17.92 -4.16 0
v 0 -4.48 0
v -0.32 -4.48 0
v -17.6 -4.48 0
v -17.92 -4.48 0
v 0 -4.8 0
v -0.32 -4.8 0
v -17.6 -4.8 0
v -17.92 -4.8 0
v -0.32 -5.12 0
v -17.6 -5.12 0
v 0 -5.44 0
v -0.32 -5.44 0
v -17.6 -5.44 0
v -17.92 -5.44 0
v 0 -5.76 0
v -0.32 -5.76 0
v -17.6 -5.76 0
v -17.92 -5.76 0
v 0 -6.08 0
v -0.32 -6.08 0
v -17.6 -6.08 0
v -17.92 -6.08 0
v 0 -6.4 0
v -0.32 -6.4 0
v -17.6 -6.4 0
v -17.92 -6.4 0
v 0 -6.72 0
v -0.32 -6.72 0
v -17.6 -6.72 0
v -17.92 -6.72 0
v 0 -7.04 0
v -0.32 -7.04 0
v -17.6 -7.04 0
v -17.92 -7.04 0
v 0 -7.36 0
v -0.32 -7.36 0
v -17.6 -7.36 0
v -17.92 -7.36 0
v -0.32 -7.68 0
v -17.6 -7.68 0
v 0 -8 0
v -0.32 -8 0
v 0 -8.32 0
v -0.32 -8.32 0
v 0 -8.639999 0
v -0.32 -8.639999 0
v 0 -8.96 0
v -0.32 -8.96 0
v 0 -9.28 0
v -0.32 -9.28 0
v -17.6 -9.28 0
v -17.92 -9.28 0
v -17.92 -8.96 0
v -17.6 -8.96 0
v 0 -9.599999 0
v -0.32 -9.599999 0
v -17.6 -9.599999 0
v -17.92 -9.599999 0
v 0 -9.92 0
v -0.32 -9.92 0
v -17.6 -9.92 0
v -17.92 -9.92 0
v -0.32 -10.24 0
v -17.6 -10.24 0
v 0 -10.56 0
v -0.32 -10.56 0
v -17.6 -10.56 0
v -17.92 -10.56 0
v 0 -10.88 0
v -0.32 -10.88 0
v -17.6 -10.88 0
v -17.92 -10.88 0
v 0 -11.2 0
v -0.32 -11.2 0
v -17.6 -11.2 0
v -17.92 -11.2 0
v 0 -11.52 0
v -0.32 -11.52 0
v -17.6 -11.52 0
v -17.92 -11.52 0
v 0 -11.84 0
v -0.32 -11.84 0
v -17.6 -11.84 0
v -17.92 -11.84 0
v 0 -12.16 0
v -0.32 -12.16 0
v -17.6 -12.16 0
v -17.92 -12.16 0
v 0 -12.48 0
v -0.32 -12.48 0
v -17.6 -12.48 0
v -17.92 -12.48 0
v -0.32 -12.8 0
v -17.6 -12.8 0
v 0 -13.12 0
v -0.32 -13.12 0
v -17.6 -13.12 0
v -17.92 -13.12 0
v 0 -13.44 0
v -0.32 -13.44 0
v -17.6 -13.44 0
v -17.92 -13.44 0
v 0 -13.76 0
v -0.32 -13.76 0
v -17.6 -13.76 0
v -17.92 -13.76 0
v 0 -14.08 0
v -0.32 -14.08 0
v -17.6 -14.08 0
v -17.92 -14.08 0
v 0 -14.4 0
v -0.32 -14.4 0
v -17.6 -14.4 0
v -17.92 -14.4 0
v 0 -14.72 0
v -0.32 -14.72 0
v -17.6 -14.72 0
v -17.92 -14.72 0
v 0 -15.04 0
v -0.32 -15.04 0
v -17.6 -15.04 0
v -17.92 -15.04 0
v -0.32 -15.36 0
v -17.6 -15.36 0
v 0 -15.68 0
v -0.32 -15.68 0
v -17.6 -15.68 0
v -17.92 -15.68 0
v 0 -16 0
v -0.32 -16 0
v -17.6 -16 0
v -17.92 -16 0
v 0 -16.32 0
v -0.32 -16.32 0
v -17.6 -16.32 0
v -17.92 -16.32 0
v 0 -16.64 0
v -0.32 -16.64 0
v -17.6 -16.64 0
v -17.92 -16.64 0
v 0 -16.96 0
v -0.32 -16.96 0
v -17.6 -16.96 0
v -17.92 -16.96 0
v 0 -17.28 0
v -0.32 -17.28 0
v -17.6 -17.28 0
v -17.92 -17.28 0
v 0 -17.6 0
v -0.32 -17.6 0
v -17.6 -17.6 0
v -17.92 -17.6 0
v -0.32 -17.92 0
v -0.64 -17.92 0
v -0.64 -17.6 0
v -0.96 -17.92 0
v -0.96 -17.6 0
v -1.28 -17.92 0
v -1.28 -17.6 0
v -1.6 -17.92 0
v -1.6 -17.6 0
v -1.92 -17.92 0
v -1.92 -17.6 0
v -2.24 -17.92 0
v -2.24 -17.6 0
v -2.56 -17.6 0
v -2.88 -17.92 0
v -2.88 -17.6 0
v -3.2 -17.92 0
v -3.2 -17.6 0
v -3.52 -17.92 0
v -3.52 -17.6 0
v -3.84 -17.92 0
v -3.84 -17.6 0
v -4.16 -17.92 0
v -4.16 -17.6 0
v -4.48 -17.92 0
v -4.48 -17.6 0
v -4.8 -17.92 0
v -4.8 -17.6 0
v -5.12 -17.6 0
v -5.44 -17.92 0
v -5.44 -17.6 0
v -5.76 -17.92 0
v -5.76 -17.6 0
v -6.08 -17.92 0
v -6.08 -17.6 0
v -6.4 -17.92 0
v -6.4 -17.6 0
v -6.72 -17.92 0
v -6.72 -17.6 0
v -7.04 -17.92 0
v -7.04 -17.6 0
v -7.36 -17.92 0
v -7.36 -17.6 0
v -7.68 -17.6 0
v -8 -17.92 0
v -8 -17.6 0
v -8.32 -17.92 0
v -8.32 -17.6 0
v -8.639999 -17.92 0
v -8.639999 -17.6 0
v -8.96 -17.92 0
v -8.96 -17.6 0
v -9.28 -17.92 0
v -9.28 -17.6 0
v -9.599999 -17.92 0
v -9.599999 -17.6 0
v -9.92 -17.92 0
v -9.92 -17.6 0
v -10.24 -17.6 0
v -10.56 -17.92 0
v -10.56 -17.6 0
v -10.88 -17.92 0
v -10.88 -17.6 0
v -11.2 -17.92 0
v -11.2 -17.6 0
v -11.52 -17.92 0
v -11.52 -17.6 0
v -11.84 -17.92 0
v -11.84 -17.6 0
v -12.16 -17.92 0
v -12.16 -17.6 0
v -12.48 -17.92 0
v -12.48 -17.6 0
v -12.8 -17.6 0
v -13.12 -17.92 0
v -13.12 -17.6 0
v -13.44 -17.92 0
v -13.44 -17.6 0
v -13.76 -17.92 0
v -13.76 -17.6 0
v -14.08 -17.92 0
v -14.08 -17.6 0
v -14.4 -17.92 0
v -14.4 -17.6 0
v -14.72 -17.92 0
v -14.72 -17.6 0
v -15.04 -17.92 0
v -15.04 -17.6 0
v -15.36 -17.6 0
v -15.68 -17.92 0
v -15.68 -17.6 0
v -16 -17.92 0
v -16 -17.6 0
v -16.32 -17.92 0
v -16.32 -17.6 0
v -16.64 -17.92 0
v -16.64 -17.6 0
v -16.96 -17.92 0
v -16.96 -17.6 0
v -17.28 -17.92 0
v -17.28 -17.6 0
v -17.6 -17.92 0

# Texture cooridinates (Count = 8)
vt 0.2001221 0.9112332
vt 0.2665446 0.9112332
vt 0.2665446 0.9998779
vt 0.2001221 0.9998779
vt 0.0001220703 0.004013121
vt 0.9959869 0.004013121
vt 0.9959869 0.9998779
vt 0.0001220703 0.9998779

# Normal
vn 0 0 -1

# Groups (Count = 4)

g mesh_0001
f 1/1/1 2/2/1 3/3/1 4/4/1
f 2/1/1 5/2/1 6/3/1 3/4/1
f 5/1/1 7/2/1 8/3/1 6/4/1
f 7/1/1 9/2/1 10/3/1 8/4/1
f 9/1/1 11/2/1 12/3/1 10/4/1
f 11/1/1 13/2/1 14/3/1 12/4/1
f 13/1/1 15/2/1 16/3/1 14/4/1

g mesh_0002
f 17/5/1 18/6/1 19/7/1 4/8/1
f 20/5/1 21/6/1 22/7/1 23/8/1
f 24/5/1 25/6/1 26/7/1 18/8/1
f 27/5/1 28/6/1 21/7/1 20/8/1
f 29/5/1 30/6/1 27/7/1 31/8/1
f 32/5/1 33/6/1 34/7/1 35/8/1
f 36/5/1 37/6/1 38/7/1 39/8/1
f 40/5/1 41/6/1 42/7/1 43/8/1
f 44/5/1 45/6/1 46/7/1 47/8/1

g mesh_0003
f 18/5/1 26/6/1 48/7/1 19/8/1
f 21/5/1 49/6/1 50/7/1 22/8/1
f 25/5/1 31/6/1 51/7/1 26/8/1
f 35/5/1 34/6/1 52/7/1 49/8/1
f 53/5/1 54/6/1 55/7/1 30/8/1
f 56/5/1 57/6/1 33/7/1 32/8/1
f 58/5/1 59/6/1 60/7/1 61/8/1
f 62/5/1 63/6/1 53/7/1 64/8/1
f 43/5/1 42/6/1 65/7/1 59/8/1
f 37/5/1 66/6/1 67/7/1 38/8/1

g mesh_0004
f 26/5/1 51/6/1 68/7/1 48/8/1
f 49/5/1 52/6/1 69/7/1 50/8/1
f 70/5/1 24/6/1 18/7/1 17/8/1
f 31/5/1 27/6/1 20/7/1 51/8/1
f 71/5/1 72/6/1 25/7/1 24/8/1
f 55/5/1 32/6/1 35/7/1 28/8/1
f 61/5/1 60/6/1 71/7/1 73/8/1
f 74/5/1 64/6/1 29/7/1 72/8/1
f 64/5/1 53/6/1 30/7/1 29/8/1
f 54/5/1 56/6/1 32/7/1 55/8/1
f 59/5/1 65/6/1 74/7/1 60/8/1
f 39/5/1 38/6/1 56/7/1 54/8/1
f 42/5/1 47/6/1 62/7/1 65/8/1
f 46/5/1 36/6/1 39/7/1 63/8/1
f 75/5/1 40/6/1 43/7/1 76/8/1
f 77/5/1 78/6/1 37/7/1 36/8/1

g mesh_0005
f 51/5/1 20/6/1 23/7/1 68/8/1
f 28/5/1 35/6/1 49/7/1 21/8/1
f 73/5/1 71/6/1 24/7/1 70/8/1
f 72/5/1 29/6/1 31/7/1 25/8/1
f 30/5/1 55/6/1 28/7/1 27/8/1
f 60/5/1 74/6/1 72/7/1 71/8/1
f 65/5/1 62/6/1 64/7/1 74/8/1
f 63/5/1 39/6/1 54/7/1 53/8/1
f 38/5/1 67/6/1 57/7/1 56/8/1
f 76/5/1 43/6/1 59/7/1 58/8/1
f 47/5/1 46/6/1 63/7/1 62/8/1
f 41/5/1 44/6/1 47/7/1 42/8/1
f 45/5/1 77/6/1 36/7/1 46/8/1
f 78/5/1 79/6/1 66/7/1 37/8/1

g mesh_0006
f 1/1/1 2/2/1 3/3/1 4/4/1
f 2/1/1 5/2/1 6/3/1 3/4/1
f 5/1/1 7/2/1 8/3/1 6/4/1
f 7/1/1 9/2/1 10/3/1 8/4/1
f 9/1/1 11/2/1 12/3/1 10/4/1
f 11/1/1 13/2/1 14/3/1 12/4/1
f 13/1/1 15/2/1 16/3/1 14/4/1
f 15/1/1 80/2/1 19/3/1 16/4/1
f 80/1/1 81/2/1 82/3/1 19/4/1
f 81/1/1 83/2/1 84/3/1 82/4/1
f 83/1/1 85/2/1 86/3/1 84/4/1
f 85/1/1 87/2/1 88/3/1 86/4/1
f 87/1/1 89/2/1 90/3/1 88/4/1
f 89/1/1 91/2/1 92/3/1 90/4/1
f 91/1/1 93/2/1 94/3/1 92/4/1
f 93/1/1 95/2/1 48/3/1 94/4/1
f 95/1/1 96/2/1 97/3/1 48/4/1
f 96/1/1 98/2/1 99/3/1 97/4/1
f 98/1/1 100/2/1 101/3/1 99/4/1
f 100/1/1 102/2/1 103/3/1 101/4/1
f 102/1/1 104/2/1 105/3/1 103/4/1
f 104/1/1 106/2/1 107/3/1 105/4/1
f 106/1/1 108/2/1 109/3/1 107/4/1
f 108/1/1 110/2/1 68/3/1 109/4/1
f 110/1/1 111/2/1 112/3/1 68/4/1
f 111/1/1 113/2/1 114/3/1 112/4/1
f 113/1/1 115/2/1 116/3/1 114/4/1
f 115/1/1 117/2/1 118/3/1 116/4/1
f 117/1/1 119/2/1 120/3/1 118/4/1
f 119/1/1 121/2/1 122/3/1 120/4/1
f 121/1/1 123/2/1 124/3/1 122/4/1
f 123/1/1 125/2/1 23/3/1 124/4/1
f 125/1/1 126/2/1 127/3/1 23/4/1
f 126/1/1 128/2/1 129/3/1 127/4/1
f 128/1/1 130/2/1 131/3/1 129/4/1
f 130/1/1 132/2/1 133/3/1 131/4/1
f 132/1/1 134/2/1 135/3/1 133/4/1
f 134/1/1 136/2/1 137/3/1 135/4/1
f 136/1/1 138/2/1 139/3/1 137/4/1
f 138/1/1 140/2/1 22/3/1 139/4/1
f 140/1/1 141/2/1 142/3/1 22/4/1
f 141/1/1 143/2/1 144/3/1 142/4/1
f 143/1/1 145/2/1 146/3/1 144/4/1
f 145/1/1 147/2/1 148/3/1 146/4/1
f 147/1/1 149/2/1 150/3/1 148/4/1
f 149/1/1 151/2/1 152/3/1 150/4/1
f 151/1/1 153/2/1 154/3/1 152/4/1
f 153/1/1 155/2/1 50/3/1 154/4/1
f 155/1/1 156/2/1 157/3/1 50/4/1
f 156/1/1 158/2/1 159/3/1 157/4/1
f 158/1/1 160/2/1 161/3/1 159/4/1
f 160/1/1 162/2/1 163/3/1 161/4/1
f 162/1/1 164/2/1 165/3/1 163/4/1
f 164/1/1 166/2/1 167/3/1 165/4/1
f 166/1/1 168/2/1 169/3/1 167/4/1
f 168/1/1 170/2/1 69/3/1 169/4/1
f 171/1/1 172/2/1 2/3/1 1/4/1
f 173/1/1 174/2/1 170/3/1 168/4/1
f 175/1/1 176/2/1 172/3/1 171/4/1
f 177/1/1 178/2/1 174/3/1 173/4/1
f 179/1/1 180/2/1 176/3/1 175/4/1
f 181/1/1 182/2/1 178/3/1 177/4/1
f 183/1/1 184/2/1 180/3/1 179/4/1
f 185/1/1 186/2/1 182/3/1 181/4/1
f 187/1/1 188/2/1 184/3/1 183/4/1
f 189/1/1 190/2/1 186/3/1 185/4/1
f 191/1/1 192/2/1 188/3/1 187/4/1
f 193/1/1 194/2/1 190/3/1 189/4/1
f 17/1/1 195/2/1 192/3/1 191/4/1
f 196/1/1 52/2/1 194/3/1 193/4/1
f 197/1/1 198/2/1 195/3/1 17/4/1
f 199/1/1 200/2/1 52/3/1 196/4/1
f 201/1/1 202/2/1 198/3/1 197/4/1
f 203/1/1 204/2/1 200/3/1 199/4/1
f 205/1/1 206/2/1 202/3/1 201/4/1
f 207/1/1 208/2/1 204/3/1 203/4/1
f 209/1/1 210/2/1 206/3/1 205/4/1
f 211/1/1 212/2/1 208/3/1 207/4/1
f 213/1/1 214/2/1 210/3/1 209/4/1
f 215/1/1 216/2/1 212/3/1 211/4/1
f 217/1/1 218/2/1 214/3/1 213/4/1
f 219/1/1 220/2/1 216/3/1 215/4/1
f 221/1/1 222/2/1 218/3/1 217/4/1
f 223/1/1 224/2/1 220/3/1 219/4/1
f 70/1/1 225/2/1 222/3/1 221/4/1
f 226/1/1 34/2/1 224/3/1 223/4/1
f 227/1/1 228/2/1 225/3/1 70/4/1
f 229/1/1 230/2/1 34/3/1 226/4/1
f 231/1/1 232/2/1 228/3/1 227/4/1
f 233/1/1 234/2/1 230/3/1 229/4/1
f 235/1/1 236/2/1 232/3/1 231/4/1
f 237/1/1 238/2/1 234/3/1 233/4/1
f 239/1/1 240/2/1 236/3/1 235/4/1
f 241/1/1 242/2/1 238/3/1 237/4/1
f 243/1/1 244/2/1 240/3/1 239/4/1
f 245/1/1 246/2/1 242/3/1 241/4/1
f 247/1/1 248/2/1 244/3/1 243/4/1
f 249/1/1 250/2/1 246/3/1 245/4/1
f 251/1/1 252/2/1 248/3/1 247/4/1
f 253/1/1 254/2/1 250/3/1 249/4/1
f 73/1/1 255/2/1 252/3/1 251/4/1
f 256/1/1 33/2/1 254/3/1 253/4/1
f 257/1/1 258/2/1 255/3/1 73/4/1
f 259/1/1 260/2/1 258/3/1 257/4/1
f 261/1/1 262/2/1 260/3/1 259/4/1
f 263/1/1 264/2/1 262/3/1 261/4/1
f 265/1/1 266/2/1 264/3/1 263/4/1
f 267/1/1 268/2/1 269/3/1 270/4/1
f 271/1/1 272/2/1 266/3/1 265/4/1
f 273/1/1 274/2/1 268/3/1 267/4/1
f 275/1/1 276/2/1 272/3/1 271/4/1
f 277/1/1 278/2/1 274/3/1 273/4/1
f 61/1/1 279/2/1 276/3/1 275/4/1
f 280/1/1 57/2/1 278/3/1 277/4/1
f 281/1/1 282/2/1 279/3/1 61/4/1
f 283/1/1 284/2/1 57/3/1 280/4/1
f 285/1/1 286/2/1 282/3/1 281/4/1
f 287/1/1 288/2/1 284/3/1 283/4/1
f 289/1/1 290/2/1 286/3/1 285/4/1
f 291/1/1 292/2/1 288/3/1 287/4/1
f 293/1/1 294/2/1 290/3/1 289/4/1
f 295/1/1 296/2/1 292/3/1 291/4/1
f 297/1/1 298/2/1 294/3/1 293/4/1
f 299/1/1 300/2/1 296/3/1 295/4/1
f 301/1/1 302/2/1 298/3/1 297/4/1
f 303/1/1 304/2/1 300/3/1 299/4/1
f 305/1/1 306/2/1 302/3/1 301/4/1
f 307/1/1 308/2/1 304/3/1 303/4/1
f 58/1/1 309/2/1 306/3/1 305/4/1
f 310/1/1 67/2/1 308/3/1 307/4/1
f 311/1/1 312/2/1 309/3/1 58/4/1
f 313/1/1 314/2/1 67/3/1 310/4/1
f 315/1/1 316/2/1 312/3/1 311/4/1
f 317/1/1 318/2/1 314/3/1 313/4/1
f 319/1/1 320/2/1 316/3/1 315/4/1
f 321/1/1 322/2/1 318/3/1 317/4/1
f 323/1/1 324/2/1 320/3/1 319/4/1
f 325/1/1 326/2/1 322/3/1 321/4/1
f 327/1/1 328/2/1 324/3/1 323/4/1
f 329/1/1 330/2/1 326/3/1 325/4/1
f 331/1/1 332/2/1 328/3/1 327/4/1
f 333/1/1 334/2/1 330/3/1 329/4/1
f 335/1/1 336/2/1 332/3/1 331/4/1
f 337/1/1 338/2/1 334/3/1 333/4/1
f 76/1/1 339/2/1 336/3/1 335/4/1
f 340/1/1 66/2/1 338/3/1 337/4/1
f 341/1/1 342/2/1 339/3/1 76/4/1
f 343/1/1 344/2/1 66/3/1 340/4/1
f 345/1/1 346/2/1 342/3/1 341/4/1
f 347/1/1 348/2/1 344/3/1 343/4/1
f 349/1/1 350/2/1 346/3/1 345/4/1
f 351/1/1 352/2/1 348/3/1 347/4/1
f 353/1/1 354/2/1 350/3/1 349/4/1
f 355/1/1 356/2/1 352/3/1 351/4/1
f 357/1/1 358/2/1 354/3/1 353/4/1
f 359/1/1 360/2/1 356/3/1 355/4/1
f 361/1/1 362/2/1 358/3/1 357/4/1
f 363/1/1 364/2/1 360/3/1 359/4/1
f 365/1/1 366/2/1 362/3/1 361/4/1
f 367/1/1 368/2/1 364/3/1 363/4/1
f 75/1/1 369/2/1 366/3/1 365/4/1
f 369/1/1 370/2/1 371/3/1 366/4/1
f 370/1/1 372/2/1 373/3/1 371/4/1
f 372/1/1 374/2/1 375/3/1 373/4/1
f 374/1/1 376/2/1 377/3/1 375/4/1
f 376/1/1 378/2/1 379/3/1 377/4/1
f 378/1/1 380/2/1 381/3/1 379/4/1
f 380/1/1 40/2/1 382/3/1 381/4/1
f 40/1/1 383/2/1 384/3/1 382/4/1
f 383/1/1 385/2/1 386/3/1 384/4/1
f 385/1/1 387/2/1 388/3/1 386/4/1
f 387/1/1 389/2/1 390/3/1 388/4/1
f 389/1/1 391/2/1 392/3/1 390/4/1
f 391/1/1 393/2/1 394/3/1 392/4/1
f 393/1/1 395/2/1 396/3/1 394/4/1
f 395/1/1 41/2/1 397/3/1 396/4/1
f 41/1/1 398/2/1 399/3/1 397/4/1
f 398/1/1 400/2/1 401/3/1 399/4/1
f 400/1/1 402/2/1 403/3/1 401/4/1
f 402/1/1 404/2/1 405/3/1 403/4/1
f 404/1/1 406/2/1 407/3/1 405/4/1
f 406/1/1 408/2/1 409/3/1 407/4/1
f 408/1/1 410/2/1 411/3/1 409/4/1
f 410/1/1 44/2/1 412/3/1 411/4/1
f 44/1/1 413/2/1 414/3/1 412/4/1
f 413/1/1 415/2/1 416/3/1 414/4/1
f 415/1/1 417/2/1 418/3/1 416/4/1
f 417/1/1 419/2/1 420/3/1 418/4/1
f 419/1/1 421/2/1 422/3/1 420/4/1
f 421/1/1 423/2/1 424/3/1 422/4/1
f 423/1/1 425/2/1 426/3/1 424/4/1
f 425/1/1 45/2/1 427/3/1 426/4/1
f 45/1/1 428/2/1 429/3/1 427/4/1
f 428/1/1 430/2/1 431/3/1 429/4/1
f 430/1/1 432/2/1 433/3/1 431/4/1
f 432/1/1 434/2/1 435/3/1 433/4/1
f 434/1/1 436/2/1 437/3/1 435/4/1
f 436/1/1 438/2/1 439/3/1 437/4/1
f 438/1/1 440/2/1 441/3/1 439/4/1
f 440/1/1 77/2/1 442/3/1 441/4/1
f 77/1/1 443/2/1 444/3/1 442/4/1
f 443/1/1 445/2/1 446/3/1 444/4/1
f 445/1/1 447/2/1 448/3/1 446/4/1
f 447/1/1 449/2/1 450/3/1 448/4/1
f 449/1/1 451/2/1 452/3/1 450/4/1
f 451/1/1 453/2/1 454/3/1 452/4/1
f 453/1/1 455/2/1 456/3/1 454/4/1
f 455/1/1 78/2/1 457/3/1 456/4/1
f 78/1/1 458/2/1 459/3/1 457/4/1
f 458/1/1 460/2/1 461/3/1 459/4/1
f 460/1/1 462/2/1 463/3/1 461/4/1
f 462/1/1 464/2/1 465/3/1 463/4/1
f 464/1/1 466/2/1 467/3/1 465/4/1
f 466/1/1 468/2/1 469/3/1 467/4/1
f 468/1/1 470/2/1 367/3/1 469/4/1
f 470/1/1 79/2/1 368/3/1 367/4/1

