# Wavefront OBJ file automatically generated by Tiled2Unity

# Vertices (Count = 537)
v 0 -2.56 0
v -2.56 -2.56 0
v -2.56 0 0
v 0 0 0
v -20.48 -2.56 0
v -23.04 -2.56 0
v -23.04 0 0
v -20.48 0 0
v -2.56 -5.12 0
v -5.12 -5.12 0
v -5.12 -2.56 0
v -12.8 -5.12 0
v -15.36 -5.12 0
v -15.36 -2.56 0
v -12.8 -2.56 0
v -30.72 -5.12 0
v -33.28 -5.12 0
v -33.28 -2.56 0
v -30.72 -2.56 0
v -10.24 -7.68 0
v -12.8 -7.68 0
v -10.24 -5.12 0
v -17.92 -7.68 0
v -20.48 -7.68 0
v -20.48 -5.12 0
v -17.92 -5.12 0
v -25.6 -7.68 0
v -28.16 -7.68 0
v -28.16 -5.12 0
v -25.6 -5.12 0
v -33.28 -7.68 0
v -35.84 -7.68 0
v -35.84 -5.12 0
v -5.12 -10.24 0
v -7.68 -10.24 0
v -7.68 -7.68 0
v -5.12 -7.68 0
v -25.6 -10.24 0
v -28.16 -10.24 0
v -2.56 -12.8 0
v -5.12 -12.8 0
v -2.56 -10.24 0
v -20.48 -12.8 0
v -23.04 -12.8 0
v -23.04 -10.24 0
v -20.48 -10.24 0
v -30.72 -12.8 0
v -33.28 -12.8 0
v -33.28 -10.24 0
v -30.72 -10.24 0
v -5.12 -15.36 0
v -7.68 -15.36 0
v -7.68 -12.8 0
v -12.8 -15.36 0
v -15.36 -15.36 0
v -15.36 -12.8 0
v -12.8 -12.8 0
v 0 -17.92 0
v -2.56 -17.92 0
v -2.56 -15.36 0
v 0 -15.36 0
v -10.24 -17.92 0
v -12.8 -17.92 0
v -10.24 -15.36 0
v -15.36 -17.92 0
v -17.92 -17.92 0
v -17.92 -15.36 0
v -30.72 -17.92 0
v -33.28 -17.92 0
v -33.28 -15.36 0
v -30.72 -15.36 0
v -5.12 0 0
v -15.36 0 0
v -12.8 0 0
v -25.6 -2.56 0
v -28.16 -2.56 0
v -28.16 0 0
v -25.6 0 0
v -35.84 -2.56 0
v -35.84 0 0
v -33.28 0 0
v -10.24 -2.56 0
v -17.92 -2.56 0
v -23.04 -5.12 0
v -2.56 -7.68 0
v -23.04 -7.68 0
v 0 -10.24 0
v 0 -7.68 0
v -12.8 -10.24 0
v -15.36 -10.24 0
v -15.36 -7.68 0
v -17.92 -10.24 0
v -30.72 -7.68 0
v -35.84 -10.24 0
v -17.92 -12.8 0
v -25.6 -12.8 0
v -35.84 -12.8 0
v -10.24 -12.8 0
v -20.48 -15.36 0
v -23.04 -15.36 0
v -25.6 -15.36 0
v -28.16 -15.36 0
v -28.16 -12.8 0
v -5.12 -17.92 0
v -7.68 -17.92 0
v -20.48 -17.92 0
v -25.6 -17.92 0
v -28.16 -17.92 0
v -7.68 -2.56 0
v -7.68 0 0
v -10.24 0 0
v -17.92 0 0
v -30.72 0 0
v 0 -5.12 0
v -7.68 -5.12 0
v -10.24 -10.24 0
v 0 -12.8 0
v -35.84 -15.36 0
v -23.04 -17.92 0
v -35.84 -17.92 0
v -17.92 -0.32 0
v -18.24 -0.32 0
v -18.24 0 0
v -18.56 -0.32 0
v -18.56 0 0
v -18.88 -0.32 0
v -18.88 0 0
v -19.2 -0.32 0
v -19.2 0 0
v -19.52 -0.32 0
v -19.52 0 0
v -19.84 -0.32 0
v -19.84 0 0
v -20.16 -0.32 0
v -20.16 0 0
v -20.48 -0.32 0
v -20.8 -0.32 0
v -20.8 0 0
v -21.12 -0.32 0
v -21.12 0 0
v -21.44 -0.32 0
v -21.44 0 0
v -21.76 -0.32 0
v -21.76 0 0
v -22.08 -0.32 0
v -22.08 0 0
v -22.4 -0.32 0
v -22.4 0 0
v -22.72 -0.32 0
v -22.72 0 0
v -23.04 -0.32 0
v -23.36 -0.32 0
v -23.36 0 0
v -23.68 -0.32 0
v -23.68 0 0
v -24 -0.32 0
v -24 0 0
v -24.32 -0.32 0
v -24.32 0 0
v -24.64 -0.32 0
v -24.64 0 0
v -24.96 -0.32 0
v -24.96 0 0
v -25.28 -0.32 0
v -25.28 0 0
v -25.6 -0.32 0
v -25.92 -0.32 0
v -25.92 0 0
v -26.24 -0.32 0
v -26.24 0 0
v -26.56 -0.32 0
v -26.56 0 0
v -26.88 -0.32 0
v -26.88 0 0
v -27.2 -0.32 0
v -27.2 0 0
v -27.52 -0.32 0
v -27.52 0 0
v -27.84 -0.32 0
v -27.84 0 0
v -28.16 -0.32 0
v -28.48 -0.32 0
v -28.48 0 0
v -28.8 -0.32 0
v -28.8 0 0
v -29.12 -0.32 0
v -29.12 0 0
v -29.44 -0.32 0
v -29.44 0 0
v -29.76 -0.32 0
v -29.76 0 0
v -30.08 -0.32 0
v -30.08 0 0
v -30.4 -0.32 0
v -30.4 0 0
v -30.72 -0.32 0
v -31.04 -0.32 0
v -31.04 0 0
v -31.36 -0.32 0
v -31.36 0 0
v -31.68 -0.32 0
v -31.68 0 0
v -32 -0.32 0
v -32 0 0
v -32.32 -0.32 0
v -32.32 0 0
v -32.64 -0.32 0
v -32.64 0 0
v -32.96 -0.32 0
v -32.96 0 0
v -33.28 -0.32 0
v -33.6 -0.32 0
v -33.6 0 0
v -33.92 -0.32 0
v -33.92 0 0
v -34.24 -0.32 0
v -34.24 0 0
v -34.56 -0.32 0
v -34.56 0 0
v -34.88 -0.32 0
v -34.88 0 0
v -35.2 -0.32 0
v -35.2 0 0
v -35.52 -0.32 0
v -35.52 0 0
v -35.84 -0.32 0
v -35.52 -0.64 0
v -35.84 -0.64 0
v -35.52 -0.96 0
v -35.84 -0.96 0
v -35.52 -1.28 0
v -35.84 -1.28 0
v -35.52 -1.6 0
v -35.84 -1.6 0
v -35.52 -1.92 0
v -35.84 -1.92 0
v -35.52 -2.24 0
v -35.84 -2.24 0
v -35.52 -2.56 0
v -35.52 -2.88 0
v -35.84 -2.88 0
v -35.52 -3.2 0
v -35.84 -3.2 0
v -35.52 -3.52 0
v -35.84 -3.52 0
v -35.52 -3.84 0
v -35.84 -3.84 0
v -35.52 -4.16 0
v -35.84 -4.16 0
v -35.52 -4.48 0
v -35.84 -4.48 0
v -35.52 -4.8 0
v -35.84 -4.8 0
v -35.52 -5.12 0
v -35.52 -5.44 0
v -35.84 -5.44 0
v -35.52 -5.76 0
v -35.84 -5.76 0
v -35.52 -6.08 0
v -35.84 -6.08 0
v -35.52 -6.4 0
v -35.84 -6.4 0
v -35.52 -6.72 0
v -35.84 -6.72 0
v -35.52 -7.04 0
v -35.84 -7.04 0
v -35.52 -7.36 0
v -35.84 -7.36 0
v -35.52 -7.68 0
v -35.52 -8 0
v -35.84 -8 0
v -35.52 -8.32 0
v -35.84 -8.32 0
v -35.52 -8.639999 0
v -35.84 -8.639999 0
v -35.52 -8.96 0
v -35.84 -8.96 0
v -35.52 -9.28 0
v -35.84 -9.28 0
v -35.52 -9.599999 0
v -35.84 -9.599999 0
v -35.52 -9.92 0
v -35.84 -9.92 0
v -35.52 -10.24 0
v -35.52 -10.56 0
v -35.84 -10.56 0
v -35.52 -10.88 0
v -35.84 -10.88 0
v -35.52 -11.2 0
v -35.84 -11.2 0
v -35.52 -11.52 0
v -35.84 -11.52 0
v -35.52 -11.84 0
v -35.84 -11.84 0
v -35.52 -12.16 0
v -35.84 -12.16 0
v -35.52 -12.48 0
v -35.84 -12.48 0
v -35.52 -12.8 0
v -35.52 -13.12 0
v -35.84 -13.12 0
v -35.52 -13.44 0
v -35.84 -13.44 0
v -35.52 -13.76 0
v -35.84 -13.76 0
v -35.52 -14.08 0
v -35.84 -14.08 0
v -35.52 -14.4 0
v -35.84 -14.4 0
v -35.52 -14.72 0
v -35.84 -14.72 0
v -35.52 -15.04 0
v -35.84 -15.04 0
v -35.52 -15.36 0
v -35.52 -15.68 0
v -35.84 -15.68 0
v -35.52 -16 0
v -35.84 -16 0
v -35.52 -16.32 0
v -35.84 -16.32 0
v -35.52 -16.64 0
v -35.84 -16.64 0
v -35.52 -16.96 0
v -35.84 -16.96 0
v -35.52 -17.28 0
v -35.84 -17.28 0
v -35.52 -17.6 0
v -35.84 -17.6 0
v -0.32 -17.92 0
v -0.32 -17.6 0
v 0 -17.6 0
v -0.64 -17.92 0
v -0.64 -17.6 0
v -0.96 -17.92 0
v -0.96 -17.6 0
v -1.28 -17.92 0
v -1.28 -17.6 0
v -1.6 -17.92 0
v -1.6 -17.6 0
v -1.92 -17.92 0
v -1.92 -17.6 0
v -2.24 -17.92 0
v -2.24 -17.6 0
v -2.56 -17.6 0
v -2.88 -17.92 0
v -2.88 -17.6 0
v -3.2 -17.92 0
v -3.2 -17.6 0
v -3.52 -17.92 0
v -3.52 -17.6 0
v -3.84 -17.92 0
v -3.84 -17.6 0
v -4.16 -17.92 0
v -4.16 -17.6 0
v -4.48 -17.92 0
v -4.48 -17.6 0
v -4.8 -17.92 0
v -4.8 -17.6 0
v -5.12 -17.6 0
v -5.44 -17.92 0
v -5.44 -17.6 0
v -5.76 -17.92 0
v -5.76 -17.6 0
v -6.08 -17.92 0
v -6.08 -17.6 0
v -6.4 -17.92 0
v -6.4 -17.6 0
v -6.72 -17.92 0
v -6.72 -17.6 0
v -7.04 -17.92 0
v -7.04 -17.6 0
v -7.36 -17.92 0
v -7.36 -17.6 0
v -7.68 -17.6 0
v -8 -17.92 0
v -8 -17.6 0
v -8.32 -17.92 0
v -8.32 -17.6 0
v -8.639999 -17.92 0
v -8.639999 -17.6 0
v -8.96 -17.92 0
v -8.96 -17.6 0
v -9.28 -17.92 0
v -9.28 -17.6 0
v -9.599999 -17.92 0
v -9.599999 -17.6 0
v -9.92 -17.92 0
v -9.92 -17.6 0
v -10.24 -17.6 0
v -10.56 -17.92 0
v -10.56 -17.6 0
v -10.88 -17.92 0
v -10.88 -17.6 0
v -11.2 -17.92 0
v -11.2 -17.6 0
v -11.52 -17.92 0
v -11.52 -17.6 0
v -11.84 -17.92 0
v -11.84 -17.6 0
v -12.16 -17.92 0
v -12.16 -17.6 0
v -12.48 -17.92 0
v -12.48 -17.6 0
v -12.8 -17.6 0
v -13.12 -17.92 0
v -13.12 -17.6 0
v -13.44 -17.92 0
v -13.44 -17.6 0
v -13.76 -17.92 0
v -13.76 -17.6 0
v -14.08 -17.92 0
v -14.08 -17.6 0
v -14.4 -17.92 0
v -14.4 -17.6 0
v -14.72 -17.92 0
v -14.72 -17.6 0
v -15.04 -17.92 0
v -15.04 -17.6 0
v -15.36 -17.6 0
v -15.68 -17.92 0
v -15.68 -17.6 0
v -16 -17.92 0
v -16 -17.6 0
v -16.32 -17.92 0
v -16.32 -17.6 0
v -16.64 -17.92 0
v -16.64 -17.6 0
v -16.96 -17.92 0
v -16.96 -17.6 0
v -17.28 -17.92 0
v -17.28 -17.6 0
v -17.6 -17.92 0
v -17.6 -17.6 0
v -17.92 -17.6 0
v -18.24 -17.92 0
v -18.24 -17.6 0
v -18.56 -17.92 0
v -18.56 -17.6 0
v -18.88 -17.92 0
v -18.88 -17.6 0
v -19.2 -17.92 0
v -19.2 -17.6 0
v -19.52 -17.92 0
v -19.52 -17.6 0
v -19.84 -17.92 0
v -19.84 -17.6 0
v -20.16 -17.92 0
v -20.16 -17.6 0
v -20.48 -17.6 0
v -20.8 -17.92 0
v -20.8 -17.6 0
v -21.12 -17.92 0
v -21.12 -17.6 0
v -21.44 -17.92 0
v -21.44 -17.6 0
v -21.76 -17.92 0
v -21.76 -17.6 0
v -22.08 -17.92 0
v -22.08 -17.6 0
v -22.4 -17.92 0
v -22.4 -17.6 0
v -22.72 -17.92 0
v -22.72 -17.6 0
v -23.04 -17.6 0
v -23.36 -17.92 0
v -23.36 -17.6 0
v -23.68 -17.92 0
v -23.68 -17.6 0
v -24 -17.92 0
v -24 -17.6 0
v -24.32 -17.92 0
v -24.32 -17.6 0
v -24.64 -17.92 0
v -24.64 -17.6 0
v -24.96 -17.92 0
v -24.96 -17.6 0
v -25.28 -17.92 0
v -25.28 -17.6 0
v -25.6 -17.6 0
v -25.92 -17.92 0
v -25.92 -17.6 0
v -26.24 -17.92 0
v -26.24 -17.6 0
v -26.56 -17.92 0
v -26.56 -17.6 0
v -26.88 -17.92 0
v -26.88 -17.6 0
v -27.2 -17.92 0
v -27.2 -17.6 0
v -27.52 -17.92 0
v -27.52 -17.6 0
v -27.84 -17.92 0
v -27.84 -17.6 0
v -28.16 -17.6 0
v -28.48 -17.92 0
v -28.48 -17.6 0
v -28.8 -17.92 0
v -28.8 -17.6 0
v -29.12 -17.92 0
v -29.12 -17.6 0
v -29.44 -17.92 0
v -29.44 -17.6 0
v -29.76 -17.92 0
v -29.76 -17.6 0
v -30.08 -17.92 0
v -30.08 -17.6 0
v -30.4 -17.92 0
v -30.4 -17.6 0
v -30.72 -17.6 0
v -31.04 -17.92 0
v -31.04 -17.6 0
v -31.36 -17.92 0
v -31.36 -17.6 0
v -31.68 -17.92 0
v -31.68 -17.6 0
v -32 -17.92 0
v -32 -17.6 0
v -32.32 -17.92 0
v -32.32 -17.6 0
v -32.64 -17.92 0
v -32.64 -17.6 0
v -32.96 -17.92 0
v -32.96 -17.6 0
v -33.28 -17.6 0
v -33.6 -17.92 0
v -33.6 -17.6 0
v -33.92 -17.92 0
v -33.92 -17.6 0
v -34.24 -17.92 0
v -34.24 -17.6 0
v -34.56 -17.92 0
v -34.56 -17.6 0
v -34.88 -17.92 0
v -34.88 -17.6 0
v -35.2 -17.92 0
v -35.2 -17.6 0
v -35.52 -17.92 0

# Texture cooridinates (Count = 8)
vt 0.0001220703 0.004013121
vt 0.9959869 0.004013121
vt 0.9959869 0.9998779
vt 0.0001220703 0.9998779
vt 0.06678874 0.8223443
vt 0.1332113 0.8223443
vt 0.1332113 0.910989
vt 0.06678874 0.910989

# Normal
vn 0 0 -1

# Groups (Count = 8)

g mesh_0001
f 1/1/1 2/2/1 3/3/1 4/4/1
f 5/1/1 6/2/1 7/3/1 8/4/1
f 9/1/1 10/2/1 11/3/1 2/4/1
f 12/1/1 13/2/1 14/3/1 15/4/1
f 16/1/1 17/2/1 18/3/1 19/4/1
f 20/1/1 21/2/1 12/3/1 22/4/1
f 23/1/1 24/2/1 25/3/1 26/4/1
f 27/1/1 28/2/1 29/3/1 30/4/1
f 31/1/1 32/2/1 33/3/1 17/4/1
f 34/1/1 35/2/1 36/3/1 37/4/1
f 38/1/1 39/2/1 28/3/1 27/4/1
f 40/1/1 41/2/1 34/3/1 42/4/1
f 43/1/1 44/2/1 45/3/1 46/4/1
f 47/1/1 48/2/1 49/3/1 50/4/1
f 51/1/1 52/2/1 53/3/1 41/4/1
f 54/1/1 55/2/1 56/3/1 57/4/1
f 58/1/1 59/2/1 60/3/1 61/4/1
f 62/1/1 63/2/1 54/3/1 64/4/1
f 65/1/1 66/2/1 67/3/1 55/4/1
f 68/1/1 69/2/1 70/3/1 71/4/1

g mesh_0002
f 2/1/1 11/2/1 72/3/1 3/4/1
f 15/1/1 14/2/1 73/3/1 74/4/1
f 75/1/1 76/2/1 77/3/1 78/4/1
f 18/1/1 79/2/1 80/3/1 81/4/1
f 22/1/1 12/2/1 15/3/1 82/4/1
f 26/1/1 25/2/1 5/3/1 83/4/1
f 84/1/1 30/2/1 75/3/1 6/4/1
f 29/1/1 16/2/1 19/3/1 76/4/1
f 85/1/1 37/2/1 10/3/1 9/4/1
f 86/1/1 27/2/1 30/3/1 84/4/1
f 87/1/1 42/2/1 85/3/1 88/4/1
f 89/1/1 90/2/1 91/3/1 21/4/1
f 92/1/1 46/2/1 24/3/1 23/4/1
f 39/1/1 50/2/1 93/3/1 28/4/1
f 50/1/1 49/2/1 31/3/1 93/4/1
f 49/1/1 94/2/1 32/3/1 31/4/1
f 56/1/1 95/2/1 92/3/1 90/4/1
f 44/1/1 96/2/1 38/3/1 45/4/1
f 48/1/1 97/2/1 94/3/1 49/4/1
f 64/1/1 54/2/1 57/3/1 98/4/1
f 67/1/1 99/2/1 43/3/1 95/4/1
f 100/1/1 101/2/1 96/3/1 44/4/1
f 102/1/1 71/2/1 47/3/1 103/4/1
f 104/1/1 105/2/1 52/3/1 51/4/1
f 63/1/1 65/2/1 55/3/1 54/4/1
f 66/1/1 106/2/1 99/3/1 67/4/1
f 107/1/1 108/2/1 102/3/1 101/4/1

g mesh_0003
f 11/1/1 109/2/1 110/3/1 72/4/1
f 82/1/1 15/2/1 74/3/1 111/4/1
f 14/1/1 83/2/1 112/3/1 73/4/1
f 6/1/1 75/2/1 78/3/1 7/4/1
f 76/1/1 19/2/1 113/3/1 77/4/1
f 114/1/1 9/2/1 2/3/1 1/4/1
f 115/1/1 22/2/1 82/3/1 109/4/1
f 25/1/1 84/2/1 6/3/1 5/4/1
f 30/1/1 29/2/1 76/3/1 75/4/1
f 88/1/1 85/2/1 9/3/1 114/4/1
f 37/1/1 36/2/1 115/3/1 10/4/1
f 21/1/1 91/2/1 13/3/1 12/4/1
f 91/1/1 23/2/1 26/3/1 13/4/1
f 28/1/1 93/2/1 16/3/1 29/4/1
f 93/1/1 31/2/1 17/3/1 16/4/1
f 42/1/1 34/2/1 37/3/1 85/4/1
f 35/1/1 116/2/1 20/3/1 36/4/1
f 116/1/1 89/2/1 21/3/1 20/4/1
f 90/1/1 92/2/1 23/3/1 91/4/1
f 46/1/1 45/2/1 86/3/1 24/4/1
f 45/1/1 38/2/1 27/3/1 86/4/1
f 117/1/1 40/2/1 42/3/1 87/4/1
f 53/1/1 98/2/1 116/3/1 35/4/1
f 95/1/1 43/2/1 46/3/1 92/4/1
f 96/1/1 103/2/1 39/3/1 38/4/1
f 103/1/1 47/2/1 50/3/1 39/4/1
f 60/1/1 51/2/1 41/3/1 40/4/1
f 55/1/1 67/2/1 95/3/1 56/4/1
f 99/1/1 100/2/1 44/3/1 43/4/1
f 101/1/1 102/2/1 103/3/1 96/4/1
f 71/1/1 70/2/1 48/3/1 47/4/1
f 70/1/1 118/2/1 97/3/1 48/4/1
f 105/1/1 62/2/1 64/3/1 52/4/1
f 106/1/1 119/2/1 100/3/1 99/4/1

g mesh_0004
f 109/1/1 82/2/1 111/3/1 110/4/1
f 83/1/1 5/2/1 8/3/1 112/4/1
f 19/1/1 18/2/1 81/3/1 113/4/1
f 10/1/1 115/2/1 109/3/1 11/4/1
f 13/1/1 26/2/1 83/3/1 14/4/1
f 17/1/1 33/2/1 79/3/1 18/4/1
f 36/1/1 20/2/1 22/3/1 115/4/1
f 24/1/1 86/2/1 84/3/1 25/4/1
f 41/1/1 53/2/1 35/3/1 34/4/1
f 98/1/1 57/2/1 89/3/1 116/4/1
f 57/1/1 56/2/1 90/3/1 89/4/1
f 61/1/1 60/2/1 40/3/1 117/4/1
f 52/1/1 64/2/1 98/3/1 53/4/1
f 59/1/1 104/2/1 51/3/1 60/4/1
f 119/1/1 107/2/1 101/3/1 100/4/1
f 108/1/1 68/2/1 71/3/1 102/4/1
f 69/1/1 120/2/1 118/3/1 70/4/1

g mesh_0005
f 121/5/1 122/6/1 123/7/1 112/8/1
f 122/5/1 124/6/1 125/7/1 123/8/1
f 124/5/1 126/6/1 127/7/1 125/8/1
f 126/5/1 128/6/1 129/7/1 127/8/1
f 128/5/1 130/6/1 131/7/1 129/8/1
f 130/5/1 132/6/1 133/7/1 131/8/1
f 132/5/1 134/6/1 135/7/1 133/8/1
f 134/5/1 136/6/1 8/7/1 135/8/1
f 136/5/1 137/6/1 138/7/1 8/8/1
f 137/5/1 139/6/1 140/7/1 138/8/1
f 139/5/1 141/6/1 142/7/1 140/8/1
f 141/5/1 143/6/1 144/7/1 142/8/1
f 143/5/1 145/6/1 146/7/1 144/8/1
f 145/5/1 147/6/1 148/7/1 146/8/1
f 147/5/1 149/6/1 150/7/1 148/8/1
f 149/5/1 151/6/1 7/7/1 150/8/1
f 151/5/1 152/6/1 153/7/1 7/8/1
f 152/5/1 154/6/1 155/7/1 153/8/1
f 154/5/1 156/6/1 157/7/1 155/8/1
f 156/5/1 158/6/1 159/7/1 157/8/1
f 158/5/1 160/6/1 161/7/1 159/8/1
f 160/5/1 162/6/1 163/7/1 161/8/1
f 162/5/1 164/6/1 165/7/1 163/8/1
f 164/5/1 166/6/1 78/7/1 165/8/1
f 166/5/1 167/6/1 168/7/1 78/8/1
f 167/5/1 169/6/1 170/7/1 168/8/1
f 169/5/1 171/6/1 172/7/1 170/8/1
f 171/5/1 173/6/1 174/7/1 172/8/1
f 173/5/1 175/6/1 176/7/1 174/8/1
f 175/5/1 177/6/1 178/7/1 176/8/1
f 177/5/1 179/6/1 180/7/1 178/8/1
f 179/5/1 181/6/1 77/7/1 180/8/1
f 181/5/1 182/6/1 183/7/1 77/8/1
f 182/5/1 184/6/1 185/7/1 183/8/1
f 184/5/1 186/6/1 187/7/1 185/8/1
f 186/5/1 188/6/1 189/7/1 187/8/1
f 188/5/1 190/6/1 191/7/1 189/8/1
f 190/5/1 192/6/1 193/7/1 191/8/1
f 192/5/1 194/6/1 195/7/1 193/8/1
f 194/5/1 196/6/1 113/7/1 195/8/1
f 196/5/1 197/6/1 198/7/1 113/8/1
f 197/5/1 199/6/1 200/7/1 198/8/1
f 199/5/1 201/6/1 202/7/1 200/8/1
f 201/5/1 203/6/1 204/7/1 202/8/1
f 203/5/1 205/6/1 206/7/1 204/8/1
f 205/5/1 207/6/1 208/7/1 206/8/1
f 207/5/1 209/6/1 210/7/1 208/8/1
f 209/5/1 211/6/1 81/7/1 210/8/1
f 211/5/1 212/6/1 213/7/1 81/8/1
f 212/5/1 214/6/1 215/7/1 213/8/1
f 214/5/1 216/6/1 217/7/1 215/8/1
f 216/5/1 218/6/1 219/7/1 217/8/1
f 218/5/1 220/6/1 221/7/1 219/8/1
f 220/5/1 222/6/1 223/7/1 221/8/1
f 222/5/1 224/6/1 225/7/1 223/8/1
f 224/5/1 226/6/1 80/7/1 225/8/1
f 227/5/1 228/6/1 226/7/1 224/8/1
f 229/5/1 230/6/1 228/7/1 227/8/1
f 231/5/1 232/6/1 230/7/1 229/8/1
f 233/5/1 234/6/1 232/7/1 231/8/1
f 235/5/1 236/6/1 234/7/1 233/8/1
f 237/5/1 238/6/1 236/7/1 235/8/1
f 239/5/1 79/6/1 238/7/1 237/8/1
f 240/5/1 241/6/1 79/7/1 239/8/1
f 242/5/1 243/6/1 241/7/1 240/8/1
f 244/5/1 245/6/1 243/7/1 242/8/1
f 246/5/1 247/6/1 245/7/1 244/8/1
f 248/5/1 249/6/1 247/7/1 246/8/1
f 250/5/1 251/6/1 249/7/1 248/8/1
f 252/5/1 253/6/1 251/7/1 250/8/1
f 254/5/1 33/6/1 253/7/1 252/8/1
f 255/5/1 256/6/1 33/7/1 254/8/1
f 257/5/1 258/6/1 256/7/1 255/8/1
f 259/5/1 260/6/1 258/7/1 257/8/1
f 261/5/1 262/6/1 260/7/1 259/8/1
f 263/5/1 264/6/1 262/7/1 261/8/1
f 265/5/1 266/6/1 264/7/1 263/8/1
f 267/5/1 268/6/1 266/7/1 265/8/1
f 269/5/1 32/6/1 268/7/1 267/8/1
f 270/5/1 271/6/1 32/7/1 269/8/1
f 272/5/1 273/6/1 271/7/1 270/8/1
f 274/5/1 275/6/1 273/7/1 272/8/1
f 276/5/1 277/6/1 275/7/1 274/8/1
f 278/5/1 279/6/1 277/7/1 276/8/1
f 280/5/1 281/6/1 279/7/1 278/8/1
f 282/5/1 283/6/1 281/7/1 280/8/1
f 284/5/1 94/6/1 283/7/1 282/8/1
f 285/5/1 286/6/1 94/7/1 284/8/1
f 287/5/1 288/6/1 286/7/1 285/8/1
f 289/5/1 290/6/1 288/7/1 287/8/1
f 291/5/1 292/6/1 290/7/1 289/8/1
f 293/5/1 294/6/1 292/7/1 291/8/1
f 295/5/1 296/6/1 294/7/1 293/8/1
f 297/5/1 298/6/1 296/7/1 295/8/1
f 299/5/1 97/6/1 298/7/1 297/8/1
f 300/5/1 301/6/1 97/7/1 299/8/1
f 302/5/1 303/6/1 301/7/1 300/8/1
f 304/5/1 305/6/1 303/7/1 302/8/1
f 306/5/1 307/6/1 305/7/1 304/8/1
f 308/5/1 309/6/1 307/7/1 306/8/1
f 310/5/1 311/6/1 309/7/1 308/8/1
f 312/5/1 313/6/1 311/7/1 310/8/1
f 314/5/1 118/6/1 313/7/1 312/8/1
f 315/5/1 316/6/1 118/7/1 314/8/1
f 317/5/1 318/6/1 316/7/1 315/8/1
f 319/5/1 320/6/1 318/7/1 317/8/1
f 321/5/1 322/6/1 320/7/1 319/8/1
f 323/5/1 324/6/1 322/7/1 321/8/1
f 325/5/1 326/6/1 324/7/1 323/8/1
f 327/5/1 328/6/1 326/7/1 325/8/1
f 58/5/1 329/6/1 330/7/1 331/8/1
f 329/5/1 332/6/1 333/7/1 330/8/1
f 332/5/1 334/6/1 335/7/1 333/8/1
f 334/5/1 336/6/1 337/7/1 335/8/1
f 336/5/1 338/6/1 339/7/1 337/8/1
f 338/5/1 340/6/1 341/7/1 339/8/1
f 340/5/1 342/6/1 343/7/1 341/8/1
f 342/5/1 59/6/1 344/7/1 343/8/1
f 59/5/1 345/6/1 346/7/1 344/8/1
f 345/5/1 347/6/1 348/7/1 346/8/1
f 347/5/1 349/6/1 350/7/1 348/8/1
f 349/5/1 351/6/1 352/7/1 350/8/1
f 351/5/1 353/6/1 354/7/1 352/8/1
f 353/5/1 355/6/1 356/7/1 354/8/1
f 355/5/1 357/6/1 358/7/1 356/8/1
f 357/5/1 104/6/1 359/7/1 358/8/1
f 104/5/1 360/6/1 361/7/1 359/8/1
f 360/5/1 362/6/1 363/7/1 361/8/1
f 362/5/1 364/6/1 365/7/1 363/8/1
f 364/5/1 366/6/1 367/7/1 365/8/1
f 366/5/1 368/6/1 369/7/1 367/8/1
f 368/5/1 370/6/1 371/7/1 369/8/1
f 370/5/1 372/6/1 373/7/1 371/8/1
f 372/5/1 105/6/1 374/7/1 373/8/1
f 105/5/1 375/6/1 376/7/1 374/8/1
f 375/5/1 377/6/1 378/7/1 376/8/1
f 377/5/1 379/6/1 380/7/1 378/8/1
f 379/5/1 381/6/1 382/7/1 380/8/1
f 381/5/1 383/6/1 384/7/1 382/8/1
f 383/5/1 385/6/1 386/7/1 384/8/1
f 385/5/1 387/6/1 388/7/1 386/8/1
f 387/5/1 62/6/1 389/7/1 388/8/1
f 62/5/1 390/6/1 391/7/1 389/8/1
f 390/5/1 392/6/1 393/7/1 391/8/1
f 392/5/1 394/6/1 395/7/1 393/8/1
f 394/5/1 396/6/1 397/7/1 395/8/1
f 396/5/1 398/6/1 399/7/1 397/8/1
f 398/5/1 400/6/1 401/7/1 399/8/1
f 400/5/1 402/6/1 403/7/1 401/8/1
f 402/5/1 63/6/1 404/7/1 403/8/1
f 63/5/1 405/6/1 406/7/1 404/8/1
f 405/5/1 407/6/1 408/7/1 406/8/1
f 407/5/1 409/6/1 410/7/1 408/8/1
f 409/5/1 411/6/1 412/7/1 410/8/1
f 411/5/1 413/6/1 414/7/1 412/8/1
f 413/5/1 415/6/1 416/7/1 414/8/1
f 415/5/1 417/6/1 418/7/1 416/8/1
f 417/5/1 65/6/1 419/7/1 418/8/1
f 65/5/1 420/6/1 421/7/1 419/8/1
f 420/5/1 422/6/1 423/7/1 421/8/1
f 422/5/1 424/6/1 425/7/1 423/8/1
f 424/5/1 426/6/1 427/7/1 425/8/1
f 426/5/1 428/6/1 429/7/1 427/8/1
f 428/5/1 430/6/1 431/7/1 429/8/1
f 430/5/1 432/6/1 433/7/1 431/8/1
f 432/5/1 66/6/1 434/7/1 433/8/1
f 66/5/1 435/6/1 436/7/1 434/8/1
f 435/5/1 437/6/1 438/7/1 436/8/1
f 437/5/1 439/6/1 440/7/1 438/8/1
f 439/5/1 441/6/1 442/7/1 440/8/1
f 441/5/1 443/6/1 444/7/1 442/8/1
f 443/5/1 445/6/1 446/7/1 444/8/1
f 445/5/1 447/6/1 448/7/1 446/8/1
f 447/5/1 106/6/1 449/7/1 448/8/1
f 106/5/1 450/6/1 451/7/1 449/8/1
f 450/5/1 452/6/1 453/7/1 451/8/1
f 452/5/1 454/6/1 455/7/1 453/8/1
f 454/5/1 456/6/1 457/7/1 455/8/1
f 456/5/1 458/6/1 459/7/1 457/8/1
f 458/5/1 460/6/1 461/7/1 459/8/1
f 460/5/1 462/6/1 463/7/1 461/8/1
f 462/5/1 119/6/1 464/7/1 463/8/1
f 119/5/1 465/6/1 466/7/1 464/8/1
f 465/5/1 467/6/1 468/7/1 466/8/1
f 467/5/1 469/6/1 470/7/1 468/8/1
f 469/5/1 471/6/1 472/7/1 470/8/1
f 471/5/1 473/6/1 474/7/1 472/8/1
f 473/5/1 475/6/1 476/7/1 474/8/1
f 475/5/1 477/6/1 478/7/1 476/8/1
f 477/5/1 107/6/1 479/7/1 478/8/1
f 107/5/1 480/6/1 481/7/1 479/8/1
f 480/5/1 482/6/1 483/7/1 481/8/1
f 482/5/1 484/6/1 485/7/1 483/8/1
f 484/5/1 486/6/1 487/7/1 485/8/1
f 486/5/1 488/6/1 489/7/1 487/8/1
f 488/5/1 490/6/1 491/7/1 489/8/1
f 490/5/1 492/6/1 493/7/1 491/8/1
f 492/5/1 108/6/1 494/7/1 493/8/1
f 108/5/1 495/6/1 496/7/1 494/8/1
f 495/5/1 497/6/1 498/7/1 496/8/1
f 497/5/1 499/6/1 500/7/1 498/8/1
f 499/5/1 501/6/1 502/7/1 500/8/1
f 501/5/1 503/6/1 504/7/1 502/8/1
f 503/5/1 505/6/1 506/7/1 504/8/1
f 505/5/1 507/6/1 508/7/1 506/8/1
f 507/5/1 68/6/1 509/7/1 508/8/1
f 68/5/1 510/6/1 511/7/1 509/8/1
f 510/5/1 512/6/1 513/7/1 511/8/1
f 512/5/1 514/6/1 515/7/1 513/8/1
f 514/5/1 516/6/1 517/7/1 515/8/1
f 516/5/1 518/6/1 519/7/1 517/8/1
f 518/5/1 520/6/1 521/7/1 519/8/1
f 520/5/1 522/6/1 523/7/1 521/8/1
f 522/5/1 69/6/1 524/7/1 523/8/1
f 69/5/1 525/6/1 526/7/1 524/8/1
f 525/5/1 527/6/1 528/7/1 526/8/1
f 527/5/1 529/6/1 530/7/1 528/8/1
f 529/5/1 531/6/1 532/7/1 530/8/1
f 531/5/1 533/6/1 534/7/1 532/8/1
f 533/5/1 535/6/1 536/7/1 534/8/1
f 535/5/1 537/6/1 327/7/1 536/8/1
f 537/5/1 120/6/1 328/7/1 327/8/1

